{
.appVersion = "3436";
.formatVersion = 3;
DisplayStrings = (
"/mooniak.sinh 

මනයැක
mooකනයකniak",
"මන/i-sign-sinhala යැක
/mooniak.sinh 

/mooniak.tri 

/ma_uuMatra-tamil nநmி/na_iMatra-tamil inயக்a
/na_iMatra-tamil/mooniak.taml",
"/ma_uuMatra-tamil நிiயக்ந
/mooniak.taml"
);
date = "2024-02-02 12:45:14 +0000";
familyName = Moonface;
featurePrefixes = (
{
code = "languagesystem DFLT dflt;
languagesystem sinh dflt;
languagesystem taml dflt;
";
name = Languagesystems;
}
);
features = (
{
code = "sub ma-tamil uuMatra-tamil by ma_uuMatra-tamil;
sub na-tamil iMatra-tamil by na_iMatra-tamil;";
tag = blws;
}
);
fontMaster = (
{
id = m01;
metricValues = (
{
over = 12;
pos = 800;
},
{
over = 12;
pos = 700;
},
{
over = 12;
pos = 474;
},
{
over = -12;
},
{
over = -12;
pos = -200;
},
{
},
{
pos = 500;
}
);
name = Regular;
}
);
glyphs = (
{
glyphname = a;
lastChange = "2024-02-02 12:45:40 +0000";
layers = (
{
associatedMasterId = m01;
layerId = "0EF112A6-69F8-47E9-9D72-C545F6D6A613";
name = Bold;
shapes = (
{
closed = 1;
nodes = (
(308,-20,o),
(364,45,o),
(378,96,c),
(364,108,l),
(350,52,l),
(354,56,o),
(358,69,o),
(362,69,c),
(374,0,l),
(566,0,l),
(565,107,o),
(563,262,o),
(563,341,cs),
(563,429,o),
(500,486,o),
(369,486,cs),
(248,486,o),
(159,434,o),
(110,377,c),
(155,311,l),
(178,328,o),
(227,345,o),
(260,345,cs),
(317,345,o),
(349,331,o),
(349,283,c),
(349,224,l),
(398,300,l),
(212,324,o),
(12,284,o),
(12,122,cs),
(12,33,o),
(83,-20,o),
(189,-20,cs)
);
},
{
closed = 1;
nodes = (
(234,110,o),
(215,131,o),
(215,151,cs),
(215,183,o),
(248,199,o),
(281,207,cs),
(316,215,o),
(355,213,o),
(411,213,c),
(351,228,l),
(351,184,l),
(351,131,o),
(310,110,o),
(274,110,cs)
);
}
);
width = 606;
},
{
layerId = m01;
shapes = (
{
closed = 1;
nodes = (
(293,-6,o),
(374,35,o),
(398,76,c),
(364,108,l),
(350,52,l),
(354,56,o),
(358,69,o),
(362,69,c),
(364,0,l),
(471,0,l),
(470,107,o),
(468,253,o),
(468,325,cs),
(468,420,o),
(419,487,o),
(290,487,cs),
(222,487,o),
(152,464,o),
(79,422,c),
(112,343,l),
(157,364,o),
(212,384,o),
(254,384,cs),
(322,384,o),
(349,361,o),
(349,289,c),
(349,234,l),
(416,260,l),
(357,282,o),
(301,300,o),
(222,300,cs),
(149,300,o),
(39,259,o),
(39,146,cs),
(39,68,o),
(94,-6,o),
(217,-6,cs)
);
},
{
closed = 1;
nodes = (
(176,93,o),
(144,115,o),
(144,150,cs),
(144,187,o),
(181,210,o),
(231,210,cs),
(306,210,o),
(371,195,o),
(401,173,c),
(351,238,l),
(351,124,l),
(331,111,o),
(269,93,o),
(230,93,cs)
);
}
);
width = 521;
},
{
associatedMasterId = m01;
layerId = "D96C34BD-538A-4AB5-B25C-CE5723F9AC80";
name = "Oct 18 17, 22:30";
shapes = (
{
closed = 1;
nodes = (
(266,-6,o),
(323,45,o),
(337,96,c),
(323,108,l),
(309,52,l),
(313,56,o),
(317,69,o),
(321,69,c),
(323,0,l),
(430,0,l),
(429,107,o),
(427,262,o),
(427,341,cs),
(427,429,o),
(369,487,o),
(264,487,cs),
(183,487,o),
(104,438,o),
(66,374,c),
(133,321,l),
(154,353,o),
(204,380,o),
(235,380,cs),
(273,380,o),
(308,361,o),
(308,313,c),
(308,234,l),
(357,298,l),
(328,308,o),
(251,308,o),
(195,297,cs),
(148,287,o),
(30,255,o),
(30,129,cs),
(30,70,o),
(71,-6,o),
(187,-6,cs)
);
},
{
closed = 1;
nodes = (
(172,96,o),
(143,115,o),
(143,144,cs),
(143,187,o),
(177,206,o),
(230,215,cs),
(275,221,o),
(314,223,o),
(370,223,c),
(310,238,l),
(310,184,l),
(308,131,o),
(258,96,o),
(206,96,cs)
);
}
);
width = 470;
},
{
associatedMasterId = m01;
layerId = "4216596A-FB49-423D-B948-26752BE507FD";
name = "28 Sep 23, 06:39";
shapes = (
{
closed = 1;
nodes = (
(266,-6,o),
(343,45,o),
(357,96,c),
(343,108,l),
(329,52,l),
(333,56,o),
(337,69,o),
(341,69,c),
(343,0,l),
(450,0,l),
(449,107,o),
(447,262,o),
(447,341,cs),
(447,429,o),
(389,487,o),
(264,487,cs),
(183,487,o),
(119,446,o),
(65,385,c),
(131,324,l),
(155,354,o),
(200,378,o),
(235,378,cs),
(273,378,o),
(328,361,o),
(328,313,c),
(328,234,l),
(377,298,l),
(348,308,o),
(251,308,o),
(195,297,cs),
(148,287,o),
(30,255,o),
(30,129,cs),
(30,70,o),
(71,-6,o),
(187,-6,cs)
);
},
{
closed = 1;
nodes = (
(172,96,o),
(143,115,o),
(143,144,cs),
(143,187,o),
(177,206,o),
(230,215,cs),
(275,221,o),
(334,223,o),
(390,223,c),
(330,238,l),
(330,184,l),
(328,131,o),
(258,96,o),
(206,96,cs)
);
}
);
width = 509;
},
{
associatedMasterId = m01;
layerId = "CACC062F-95F7-406E-AF10-C34C805BFBDB";
name = "28 Sep 23, 06:42";
shapes = (
{
closed = 1;
nodes = (
(276,-6,o),
(353,45,o),
(367,96,c),
(353,108,l),
(339,52,l),
(343,56,o),
(347,69,o),
(351,69,c),
(353,0,l),
(460,0,l),
(459,107,o),
(457,262,o),
(457,341,cs),
(457,429,o),
(399,487,o),
(280,487,cs),
(193,487,o),
(120,455,o),
(60,418,c),
(101,334,l),
(135,359,o),
(200,378,o),
(235,378,cs),
(283,378,o),
(338,361,o),
(338,313,c),
(338,234,l),
(387,298,l),
(358,308,o),
(261,308,o),
(195,297,cs),
(148,289,o),
(30,259,o),
(30,133,cs),
(30,74,o),
(81,-6,o),
(200,-6,cs)
);
},
{
closed = 1;
nodes = (
(172,96,o),
(143,115,o),
(143,147,cs),
(143,187,o),
(177,204,o),
(230,210,cs),
(285,216,o),
(344,218,o),
(400,218,c),
(340,238,l),
(340,184,l),
(338,131,o),
(268,96,o),
(206,96,cs)
);
}
);
width = 509;
},
{
associatedMasterId = m01;
layerId = "875ACFEE-BA72-4665-BF9B-CA2D4BDAF5C9";
name = "28 Sep 23, 06:55";
shapes = (
{
closed = 1;
nodes = (
(475,0,l),
(475,126,o),
(475,242,o),
(475,355,c),
(475,442,o),
(406,487,o),
(333,487,cs),
(248,487,o),
(172,419,o),
(135,369,c),
(165,287,l),
(186,333,o),
(248,366,o),
(288,366,cs),
(320,366,o),
(349,351,o),
(353,309,cs),
(358,253,o),
(356,110,o),
(356,0,c)
);
}
);
width = 520;
},
{
associatedMasterId = m01;
layerId = "3BD658D6-AD02-4DE4-9AA8-AFE1B033EF14";
name = "16 Oct 23 at 15:59";
shapes = (
{
closed = 1;
nodes = (
(299,-6,o),
(380,35,o),
(404,76,c),
(370,108,l),
(356,52,l),
(360,56,o),
(364,69,o),
(368,69,c),
(370,0,l),
(477,0,l),
(476,107,o),
(474,253,o),
(474,335,cs),
(474,420,o),
(436,487,o),
(307,487,cs),
(230,487,o),
(167,475,o),
(107,438,c),
(148,344,l),
(182,369,o),
(227,378,o),
(252,378,cs),
(330,378,o),
(355,351,o),
(355,283,c),
(355,234,l),
(422,246,l),
(413,266,o),
(350,300,o),
(222,300,cs),
(155,300,o),
(45,259,o),
(45,138,cs),
(45,68,o),
(100,-6,o),
(223,-6,cs)
);
},
{
closed = 1;
nodes = (
(182,93,o),
(150,115,o),
(150,150,cs),
(150,187,o),
(187,210,o),
(237,210,cs),
(312,210,o),
(387,194,o),
(407,164,c),
(357,238,l),
(357,124,l),
(337,111,o),
(275,93,o),
(236,93,cs)
);
}
);
width = 527;
}
);
metricRight = n;
unicode = 97;
userData = {
com.typemytype.robofont.layerData = {
"Jan 31 17, 02:15" = {
anchors = (
);
components = (
);
contours = (
{
points = (
{
segmentType = line;
smooth = 0;
x = 337;
y = 258;
},
{
segmentType = line;
smooth = 0;
x = 398;
y = 196;
},
{
smooth = 0;
x = 203;
y = 262;
},
{
smooth = 0;
x = 147;
y = 196;
},
{
segmentType = curve;
smooth = 1;
x = 147.34;
y = 140.69;
},
{
smooth = 0;
x = 147.34;
y = 80.168;
},
{
smooth = 0;
x = 182.43401;
y = 56.967;
},
{
segmentType = curve;
smooth = 1;
x = 226.8;
y = 57.87;
},
{
smooth = 0;
x = 271.87701;
y = 58.85;
},
{
smooth = 0;
x = 315.39499;
y = 77.066;
},
{
segmentType = curve;
smooth = 0;
x = 337;
y = 114.331;
}
);
},
{
points = (
{
segmentType = curve;
smooth = 1;
x = 271.42001;
y = 491.31;
},
{
smooth = 0;
x = 360.78101;
y = 491.31;
},
{
smooth = 0;
x = 427.66;
y = 453.07401;
},
{
segmentType = curve;
smooth = 1;
x = 427.66;
y = 365.14999;
},
{
smooth = 0;
x = 427.66;
y = 281.51401;
},
{
smooth = 0;
x = 423.10001;
y = 165.65199;
},
{
segmentType = curve;
smooth = 1;
x = 423.10001;
y = 113.131;
},
{
smooth = 0;
x = 423.10001;
y = 54.032;
},
{
smooth = 0;
x = 448.11099;
y = 44.305;
},
{
segmentType = curve;
smooth = 0;
x = 483.5;
y = 45.25;
},
{
segmentType = line;
smooth = 0;
x = 492.23901;
y = 7.45;
},
{
smooth = 0;
x = 453.474;
y = -12.119;
},
{
smooth = 0;
x = 423.345;
y = -13.627;
},
{
segmentType = curve;
smooth = 1;
x = 400;
y = -10.524;
},
{
smooth = 0;
x = 351.465;
y = -4.496;
},
{
smooth = 0;
x = 340.75299;
y = 22.085;
},
{
segmentType = curve;
smooth = 0;
x = 340.12;
y = 55.971;
},
{
smooth = 0;
x = 319.254;
y = 36.344;
},
{
smooth = 0;
x = 286.03101;
y = -8.29;
},
{
segmentType = curve;
smooth = 1;
x = 195.22;
y = -8.29;
},
{
smooth = 0;
x = 111.486;
y = -8.29;
},
{
smooth = 0;
x = 51.5;
y = 42.136;
},
{
segmentType = curve;
smooth = 1;
x = 51.5;
y = 115.271;
},
{
smooth = 0;
x = 52;
y = 262;
},
{
smooth = 0;
x = 226;
y = 289;
},
{
segmentType = curve;
smooth = 0;
x = 367;
y = 289;
},
{
segmentType = line;
smooth = 0;
x = 335;
y = 244;
},
{
segmentType = line;
smooth = 0;
x = 335;
y = 333;
},
{
smooth = 0;
x = 335;
y = 401;
},
{
smooth = 0;
x = 292.66901;
y = 424;
},
{
segmentType = curve;
smooth = 1;
x = 217;
y = 421;
},
{
smooth = 0;
x = 169.591;
y = 419.12;
},
{
smooth = 0;
x = 133.19901;
y = 407.71399;
},
{
segmentType = curve;
smooth = 0;
x = 93.45;
y = 390.271;
},
{
segmentType = line;
smooth = 0;
x = 87.15;
y = 435.95001;
},
{
smooth = 0;
x = 127;
y = 464;
},
{
smooth = 0;
x = 202.043;
y = 491.31;
}
);
}
);
lib = {
};
name = a;
unicodes = (
);
width = 541;
};
};
};
},
{
glyphname = i;
lastChange = "2024-02-02 12:45:40 +0000";
layers = (
{
associatedMasterId = m01;
layerId = "0EF112A6-69F8-47E9-9D72-C545F6D6A613";
name = Bold;
shapes = (
{
closed = 1;
nodes = (
(187,0,l),
(187,73,o),
(186,313,o),
(183,479,c),
(66,474,l),
(68,308,o),
(70,158,o),
(70,0,c)
);
},
{
closed = 1;
nodes = (
(168,549,o),
(200,582,o),
(200,623,cs),
(200,665,o),
(168,698,o),
(126,698,cs),
(84,698,o),
(52,665,o),
(52,623,cs),
(52,582,o),
(84,549,o),
(126,549,cs)
);
}
);
width = 252;
},
{
layerId = m01;
shapes = (
{
closed = 1;
nodes = (
(196,0,l),
(195,73,o),
(194,313,o),
(192,479,c),
(73,474,l),
(75,308,o),
(77,158,o),
(77,0,c)
);
},
{
closed = 1;
nodes = (
(175,549,o),
(207,582,o),
(207,623,cs),
(207,665,o),
(175,698,o),
(133,698,cs),
(91,698,o),
(59,665,o),
(59,623,cs),
(59,582,o),
(91,549,o),
(133,549,cs)
);
}
);
width = 266;
}
);
unicode = 105;
},
{
glyphname = k;
lastChange = "2024-02-02 12:45:40 +0000";
layers = (
{
associatedMasterId = m01;
layerId = "0EF112A6-69F8-47E9-9D72-C545F6D6A613";
name = Bold;
shapes = (
{
closed = 1;
nodes = (
(476,0,l),
(175,388,l),
(173,217,l),
(211,147,l),
(332,0,l)
);
},
{
closed = 1;
nodes = (
(179,0,l),
(181,680,l),
(58,674,l),
(62,0,l)
);
},
{
closed = 1;
nodes = (
(434,481,l),
(312,479,l),
(191,248,l),
(281,186,l)
);
}
);
width = 476;
},
{
layerId = m01;
shapes = (
{
closed = 1;
nodes = (
(542,0,l),
(284,259,l),
(256,275,l),
(166,362,l),
(166,232,l),
(237,141,l),
(388,0,l)
);
},
{
closed = 1;
nodes = (
(180,0,l),
(181,228,o),
(180,455,o),
(181,683,c),
(60,680,l),
(61,453,o),
(61,227,o),
(59,0,c)
);
},
{
closed = 1;
nodes = (
(496,479,l),
(362,476,l),
(214,278,l),
(299,215,l)
);
}
);
width = 542;
},
{
associatedMasterId = m01;
layerId = "99CCFA8E-6C3C-4B36-BFDC-6B2821FDD4E2";
name = "16 Oct 23 at 16:23";
shapes = (
{
closed = 1;
nodes = (
(537,0,l),
(176,353,l),
(166,222,l),
(232,147,l),
(383,0,l)
);
},
{
closed = 1;
nodes = (
(180,0,l),
(180,228,o),
(180,455,o),
(181,683,c),
(60,680,l),
(61,453,o),
(61,227,o),
(59,0,c)
);
},
{
closed = 1;
nodes = (
(491,479,l),
(357,476,l),
(209,278,l),
(294,215,l)
);
}
);
width = 527;
}
);
unicode = 107;
},
{
glyphname = m;
lastChange = "2024-02-02 12:45:40 +0000";
layers = (
{
associatedMasterId = m01;
layerId = "0EF112A6-69F8-47E9-9D72-C545F6D6A613";
name = Bold;
shapes = (
{
closed = 1;
nodes = (
(574,0,l),
(574,126,o),
(574,242,o),
(574,355,c),
(574,442,o),
(507,487,o),
(424,487,cs),
(343,487,o),
(277,436,o),
(222,386,c),
(270,227,l),
(289,273,o),
(300,306,o),
(329,306,cs),
(347,306,o),
(351,291,o),
(355,249,cs),
(360,193,o),
(358,110,o),
(358,0,c)
);
},
{
closed = 1;
nodes = (
(273,0,l),
(270,111,o),
(270,264,o),
(271,394,c),
(261,406,l),
(260,480,l),
(30,476,l),
(30,310,o),
(31,161,o),
(33,0,c)
);
},
{
closed = 1;
nodes = (
(874,0,l),
(874,126,o),
(874,242,o),
(874,355,c),
(874,442,o),
(807,487,o),
(724,487,cs),
(643,487,o),
(577,436,o),
(522,386,c),
(570,227,l),
(589,273,o),
(600,306,o),
(629,306,cs),
(647,306,o),
(651,291,o),
(655,249,cs),
(660,193,o),
(658,110,o),
(658,0,c)
);
}
);
width = 904;
},
{
layerId = m01;
shapes = (
{
closed = 1;
nodes = (
(776,0,l),
(776,126,o),
(776,242,o),
(776,338,cs),
(776,442,o),
(707,487,o),
(634,487,cs),
(549,487,o),
(473,419,o),
(436,369,c),
(466,287,l),
(487,333,o),
(549,366,o),
(589,366,cs),
(621,366,o),
(650,351,o),
(654,309,cs),
(659,253,o),
(657,110,o),
(657,0,c)
);
},
{
closed = 1;
nodes = (
(172,0,l),
(169,111,o),
(169,244,o),
(170,374,c),
(160,386,l),
(159,483,l),
(50,479,l),
(50,304,o),
(51,161,o),
(53,0,c)
);
},
{
closed = 1;
nodes = (
(471,0,l),
(471,126,o),
(471,242,o),
(471,355,c),
(471,442,o),
(414,486,o),
(343,486,cs),
(261,486,o),
(178,419,o),
(141,369,c),
(169,287,l),
(190,333,o),
(244,366,o),
(284,366,cs),
(316,366,o),
(345,351,o),
(349,309,cs),
(354,253,o),
(352,110,o),
(352,0,c)
);
}
);
width = 826;
},
{
associatedMasterId = m01;
layerId = "893059F4-3D10-4C5C-9713-7F5FAD8B601D";
name = "28 Sep 23, 06:33";
shapes = (
{
closed = 1;
nodes = (
(773,0,l),
(773,126,o),
(773,242,o),
(773,355,c),
(773,442,o),
(704,487,o),
(631,487,cs),
(546,487,o),
(470,436,o),
(433,386,c),
(463,287,l),
(484,333,o),
(546,366,o),
(586,366,cs),
(618,366,o),
(647,351,o),
(651,309,cs),
(656,253,o),
(654,110,o),
(654,0,c)
);
},
{
closed = 1;
nodes = (
(169,0,l),
(166,111,o),
(166,264,o),
(167,394,c),
(157,406,l),
(156,483,l),
(47,479,l),
(47,304,o),
(48,161,o),
(50,0,c)
);
},
{
closed = 1;
nodes = (
(468,0,l),
(468,126,o),
(468,242,o),
(468,355,c),
(468,442,o),
(411,486,o),
(340,486,cs),
(258,486,o),
(175,436,o),
(138,386,c),
(166,287,l),
(187,333,o),
(241,366,o),
(281,366,cs),
(313,366,o),
(342,351,o),
(346,309,cs),
(351,253,o),
(349,110,o),
(349,0,c)
);
}
);
width = 826;
}
);
metricLeft = n;
metricRight = "=n";
unicode = 109;
userData = {
com.schriftgestaltung.Glyphs.rightMetricsKey = "=n";
};
},
{
color = 0;
glyphname = n;
lastChange = "2024-02-02 12:45:40 +0000";
layers = (
{
associatedMasterId = m01;
layerId = "0EF112A6-69F8-47E9-9D72-C545F6D6A613";
name = Bold;
shapes = (
{
closed = 1;
nodes = (
(273,0,l),
(270,111,o),
(270,264,o),
(271,394,c),
(261,406,l),
(260,480,l),
(30,476,l),
(30,310,o),
(31,161,o),
(33,0,c)
);
},
{
closed = 1;
nodes = (
(574,0,l),
(574,126,o),
(574,242,o),
(574,355,c),
(574,442,o),
(507,487,o),
(424,487,cs),
(343,487,o),
(277,436,o),
(222,386,c),
(270,227,l),
(278,273,o),
(300,306,o),
(329,306,cs),
(347,306,o),
(351,291,o),
(355,249,cs),
(360,193,o),
(358,110,o),
(358,0,c)
);
}
);
width = 604;
},
{
background = {
shapes = (
{
closed = 1;
nodes = (
(172,0,l),
(169,111,o),
(169,244,o),
(170,374,c),
(160,386,l),
(159,483,l),
(50,479,l),
(50,304,o),
(51,161,o),
(53,0,c)
);
}
);
};
layerId = m01;
shapes = (
{
closed = 1;
nodes = (
(172,0,l),
(169,111,o),
(170,264,o),
(171,394,c),
(161,386,l),
(160,482,l),
(50,480,l),
(50,308,o),
(51,161,o),
(53,0,c)
);
},
{
closed = 1;
nodes = (
(475,0,l),
(475,126,o),
(475,242,o),
(475,335,cs),
(475,442,o),
(406,487,o),
(333,487,cs),
(248,487,o),
(172,419,o),
(135,369,c),
(165,287,l),
(186,333,o),
(248,366,o),
(288,366,cs),
(320,366,o),
(349,355,o),
(354,309,cs),
(360,253,o),
(356,110,o),
(356,0,c)
);
}
);
width = 525;
}
);
unicode = 110;
},
{
glyphname = o;
lastChange = "2025-11-09 16:37:51 +0000";
layers = (
{
associatedMasterId = m01;
layerId = "0EF112A6-69F8-47E9-9D72-C545F6D6A613";
name = Bold;
shapes = (
{
closed = 1;
nodes = (
(429,-12,o),
(514,96,o),
(514,242,cs),
(514,377,o),
(434,486,o),
(277,486,cs),
(140,486,o),
(40,385,o),
(40,229,cs),
(40,95,o),
(124,-12,o),
(278,-12,cs)
);
},
{
closed = 1;
nodes = (
(216,103,o),
(159,150,o),
(159,235,cs),
(159,316,o),
(205,369,o),
(274,369,cs),
(337,369,o),
(393,323,o),
(393,233,cs),
(393,152,o),
(350,103,o),
(283,103,cs)
);
}
);
width = 555;
},
{
layerId = m01;
shapes = (
{
closed = 1;
nodes = (
(440,-12,o),
(525,98,o),
(525,237,cs),
(525,389,o),
(437,486,o),
(289,486,cs),
(138,486,o),
(43,371,o),
(43,237,cs),
(43,98,o),
(138,-12,o),
(289,-12,cs)
);
},
{
closed = 1;
nodes = (
(218,99,o),
(162,149,o),
(162,237,cs),
(162,325,o),
(218,372,o),
(289,372,cs),
(360,372,o),
(406,325,o),
(406,237,cs),
(406,149,o),
(360,99,o),
(289,99,cs)
);
}
);
width = 578;
},
{
associatedMasterId = m01;
layerId = "B5262D3B-CF60-4F97-8785-34DEF67330A4";
name = "28 Sep 23, 06:37";
shapes = (
{
closed = 1;
nodes = (
(423,-12,o),
(504,99,o),
(504,245,cs),
(504,370,o),
(419,486,o),
(269,486,cs),
(136,486,o),
(40,389,o),
(40,236,cs),
(40,109,o),
(116,-12,o),
(278,-12,cs)
);
},
{
closed = 1;
nodes = (
(209,99,o),
(151,156,o),
(151,237,cs),
(151,318,o),
(196,372,o),
(265,372,cs),
(338,372,o),
(389,320,o),
(389,230,cs),
(389,149,o),
(343,99,o),
(276,99,cs)
);
}
);
width = 543;
},
{
associatedMasterId = m01;
layerId = "0D65C777-E0B3-4B9A-91E9-A610DD093C43";
name = "16 Oct 23 at 13:40";
shapes = (
{
closed = 1;
nodes = (
(435,-12,o),
(504,115,o),
(504,237,cs),
(504,376,o),
(415,486,o),
(271,486,cs),
(136,486,o),
(40,388,o),
(40,241,cs),
(40,109,o),
(117,-12,o),
(274,-12,cs)
);
},
{
closed = 1;
nodes = (
(209,99,o),
(151,154,o),
(151,241,cs),
(151,316,o),
(195,372,o),
(267,372,cs),
(336,372,o),
(389,321,o),
(389,232,cs),
(389,149,o),
(343,99,o),
(278,99,cs)
);
}
);
width = 543;
}
);
unicode = 111;
},
{
glyphname = "ka-sinhala";
lastChange = "2025-11-09 20:27:51 +0000";
layers = (
{
anchors = (
{
name = "al-sign";
pos = (670,474);
}
);
background = {
shapes = (
{
closed = 1;
nodes = (
(103,360,l),
(130,376,o),
(160,396,o),
(193,396,cs),
(233,396,o),
(254,388,o),
(298,309,c),
(348,355,l),
(306,457,o),
(272,498,o),
(202,498,cs),
(141,498,o),
(89,458,o),
(62,439,c)
);
}
);
};
layerId = m01;
shapes = (
{
closed = 1;
nodes = (
(507,-10,o),
(568,43,o),
(568,146,cs),
(568,273,o),
(497,322,o),
(359,298,c),
(336,228,l),
(402,237,o),
(458,222,o),
(458,153,cs),
(458,118,o),
(441,96,o),
(412,96,cs),
(366,96,o),
(355,130,o),
(355,171,c),
(273,171,l),
(274,135,o),
(270,96,o),
(231,96,cs),
(190,96,o),
(178,127,o),
(174,214,c),
(88,164,l),
(83,43,o),
(123,-10,o),
(219,-10,cs),
(286,-10,o),
(320,24,o),
(325,92,c),
(310,92,l),
(309,27,o),
(354,-10,o),
(429,-10,cs)
);
},
{
closed = 1;
nodes = (
(366,323,ls),
(411,351,o),
(467,393,o),
(541,393,cs),
(638,393,o),
(709,328,o),
(709,229,cs),
(709,136,o),
(662,87,o),
(595,91,c),
(605,0,l),
(739,-13,o),
(828,71,o),
(828,229,cs),
(828,391,o),
(725,500,o),
(560,500,cs),
(451,500,o),
(375,451,o),
(289,391,c),
(267,377,l),
(34,201,l),
(91,137,l),
(126,152,l),
(316,292,l)
);
},
{
closed = 1;
nodes = (
(102,360,l),
(129,376,o),
(159,396,o),
(192,396,cs),
(224,396,o),
(248,385,o),
(270,336,c),
(299,297,l),
(336,228,l),
(418,253,l),
(369,352,l),
(352,362,l),
(314,473,o),
(271,498,o),
(205,498,cs),
(143,498,o),
(101,467,o),
(61,439,c)
);
}
);
width = 870;
},
{
anchors = (
{
name = "al-sign";
pos = (655,500);
}
);
associatedMasterId = m01;
background = {
shapes = (
{
closed = 1;
nodes = (
(497,-8,o),
(555,53,o),
(555,174,cs),
(555,250,o),
(501,358,o),
(354,358,c),
(298,358,l),
(275,288,l),
(318,288,l),
(435,288,o),
(455,222,o),
(455,174,cs),
(455,127,o),
(443,96,o),
(411,96,cs),
(370,96,o),
(357,130,o),
(357,171,c),
(278,171,l),
(279,135,o),
(275,96,o),
(232,96,cs),
(195,96,o),
(173,117,o),
(173,194,c),
(96,164,l),
(90,57,o),
(133,-8,o),
(227,-8,cs),
(289,-8,o),
(313,39,o),
(327,72,c),
(312,72,l),
(319,49,o),
(349,-8,o),
(428,-8,cs)
);
},
{
closed = 1;
nodes = (
(341,307,o),
(342,308,o),
(368,322,cs),
(415,347,o),
(467,390,o),
(538,390,cs),
(615,390,o),
(692,341,o),
(692,229,cs),
(692,138,o),
(659,77,o),
(593,91,c),
(593,8,l),
(735,-24,o),
(806,69,o),
(806,229,cs),
(806,399,o),
(704,497,o),
(555,497,cs),
(456,497,o),
(380,451,o),
(304,391,c),
(272,377,l),
(39,201,l),
(96,137,l),
(131,152,l),
(321,292,l)
);
},
{
closed = 1;
nodes = (
(93,360,l),
(120,376,o),
(150,396,o),
(183,396,cs),
(223,396,o),
(244,388,o),
(288,309,c),
(338,355,l),
(296,457,o),
(262,498,o),
(192,498,cs),
(131,498,o),
(79,458,o),
(52,439,c)
);
}
);
};
layerId = "571815D4-1D57-498A-B466-7D57EBA2F8E9";
name = "9 Nov 25 at 23:02";
shapes = (
{
closed = 1;
nodes = (
(497,-8,o),
(555,53,o),
(555,174,cs),
(555,250,o),
(501,358,o),
(354,358,c),
(298,358,l),
(275,288,l),
(318,288,l),
(435,288,o),
(455,222,o),
(455,174,cs),
(455,127,o),
(443,96,o),
(411,96,cs),
(370,96,o),
(357,130,o),
(357,171,c),
(278,171,l),
(279,135,o),
(275,96,o),
(232,96,cs),
(195,96,o),
(173,117,o),
(173,194,c),
(96,164,l),
(90,57,o),
(133,-8,o),
(227,-8,cs),
(289,-8,o),
(313,39,o),
(327,72,c),
(312,72,l),
(319,49,o),
(349,-8,o),
(428,-8,cs)
);
},
{
closed = 1;
nodes = (
(341,307,o),
(342,308,o),
(368,322,cs),
(415,347,o),
(467,390,o),
(538,390,cs),
(615,390,o),
(692,341,o),
(692,229,cs),
(692,138,o),
(659,77,o),
(593,91,c),
(593,8,l),
(735,-24,o),
(806,69,o),
(806,229,cs),
(806,399,o),
(704,497,o),
(555,497,cs),
(456,497,o),
(380,451,o),
(304,391,c),
(272,377,l),
(39,201,l),
(96,137,l),
(131,152,l),
(321,292,l)
);
},
{
closed = 1;
nodes = (
(93,360,l),
(120,376,o),
(150,396,o),
(183,396,cs),
(223,396,o),
(244,388,o),
(288,309,c),
(338,355,l),
(296,457,o),
(262,498,o),
(192,498,cs),
(131,498,o),
(79,458,o),
(52,439,c)
);
}
);
width = 845;
},
{
anchors = (
{
name = "al-sign";
pos = (640,500);
}
);
associatedMasterId = m01;
background = {
shapes = (
{
closed = 1;
nodes = (
(482,-8,o),
(540,43,o),
(540,154,cs),
(540,240,o),
(486,298,o),
(399,298,c),
(343,298,l),
(320,218,l),
(383,218,l),
(420,218,o),
(440,192,o),
(440,154,cs),
(440,117,o),
(428,96,o),
(396,96,cs),
(355,96,o),
(342,130,o),
(342,171,c),
(263,171,l),
(264,135,o),
(260,96,o),
(220,96,cs),
(180,96,o),
(168,127,o),
(168,214,c),
(81,174,l),
(75,47,o),
(118,-8,o),
(215,-8,cs),
(280,-8,o),
(310,29,o),
(312,72,c),
(297,72,l),
(298,43,o),
(334,-8,o),
(413,-8,cs)
);
},
{
closed = 1;
nodes = (
(326,307,o),
(327,308,o),
(353,322,cs),
(400,347,o),
(452,390,o),
(523,390,cs),
(600,390,o),
(677,341,o),
(677,229,cs),
(677,138,o),
(644,77,o),
(578,91,c),
(578,8,l),
(720,-24,o),
(791,69,o),
(791,229,cs),
(791,399,o),
(689,497,o),
(540,497,cs),
(441,497,o),
(365,451,o),
(289,391,c),
(257,377,l),
(24,201,l),
(81,137,l),
(116,152,l),
(306,292,l)
);
},
{
closed = 1;
nodes = (
(102,367,l),
(129,383,o),
(159,403,o),
(192,403,cs),
(227,403,o),
(242,375,o),
(270,326,c),
(285,297,l),
(320,218,l),
(412,243,l),
(363,352,l),
(352,362,l),
(312,460,o),
(271,495,o),
(205,495,cs),
(143,495,o),
(101,464,o),
(61,436,c)
);
}
);
};
layerId = "AF30E272-8161-4AF0-A2B2-43A2BEFAD6A4";
name = "10 Nov 25 at 01:19";
shapes = (
{
closed = 1;
nodes = (
(482,-8,o),
(540,43,o),
(540,154,cs),
(540,240,o),
(486,298,o),
(399,298,c),
(343,298,l),
(320,218,l),
(383,218,l),
(420,218,o),
(440,192,o),
(440,154,cs),
(440,117,o),
(428,96,o),
(396,96,cs),
(355,96,o),
(342,130,o),
(342,171,c),
(263,171,l),
(264,135,o),
(260,96,o),
(220,96,cs),
(180,96,o),
(168,127,o),
(168,214,c),
(81,174,l),
(75,47,o),
(118,-8,o),
(215,-8,cs),
(280,-8,o),
(310,29,o),
(312,72,c),
(297,72,l),
(298,43,o),
(334,-8,o),
(413,-8,cs)
);
},
{
closed = 1;
nodes = (
(326,307,o),
(327,308,o),
(353,322,cs),
(400,347,o),
(452,390,o),
(523,390,cs),
(600,390,o),
(677,341,o),
(677,229,cs),
(677,138,o),
(644,77,o),
(578,91,c),
(578,8,l),
(720,-24,o),
(791,69,o),
(791,229,cs),
(791,399,o),
(689,497,o),
(540,497,cs),
(441,497,o),
(365,451,o),
(289,391,c),
(257,377,l),
(24,201,l),
(81,137,l),
(116,152,l),
(306,292,l)
);
},
{
closed = 1;
nodes = (
(102,367,l),
(129,383,o),
(159,403,o),
(192,403,cs),
(227,403,o),
(242,375,o),
(270,326,c),
(285,297,l),
(320,218,l),
(412,243,l),
(363,352,l),
(352,362,l),
(312,460,o),
(271,495,o),
(205,495,cs),
(143,495,o),
(101,464,o),
(61,436,c)
);
}
);
width = 830;
}
);
unicode = 3482;
},
{
glyphname = "na-sinhala";
lastChange = "2025-11-09 20:27:20 +0000";
layers = (
{
anchors = (
{
name = iSign;
pos = (475,500);
}
);
background = {
shapes = (
{
closed = 1;
nodes = (
(311,192,l),
(318,194,o),
(326,196,o),
(348,196,cs),
(385,196,o),
(408,178,o),
(408,154,cs),
(408,106,o),
(340,90,o),
(295,90,cs),
(213,90,o),
(153,121,o),
(138,170,c),
(132,223,l),
(129,243,o),
(127,270,o),
(126,305,c),
(50,300,l),
(49,285,o),
(47,270,o),
(46,245,cs),
(39,115,o),
(95,-7,o),
(295,-7,cs),
(439,-7,o),
(508,61,o),
(508,157,cs),
(508,213,o),
(466,280,o),
(395,280,cs),
(368,280,o),
(349,271,o),
(329,265,c)
);
},
{
closed = 1;
nodes = (
(87,367,l),
(114,383,o),
(144,403,o),
(177,403,cs),
(217,403,o),
(222,375,o),
(266,296,c),
(270,276,l),
(311,192,l),
(382,243,l),
(343,332,l),
(332,352,l),
(290,454,o),
(256,495,o),
(186,495,cs),
(125,495,o),
(73,455,o),
(46,436,c)
);
},
{
closed = 1;
nodes = (
(758,386,o),
(666,497,o),
(511,497,cs),
(411,497,o),
(340,455,o),
(282,361,c),
(266,341,l),
(230,295,o),
(204,254,o),
(163,245,c),
(144,240,o),
(121,242,o),
(100,244,c),
(100,165,l),
(123,159,o),
(158,156,o),
(176,158,cs),
(254,167,o),
(277,238,o),
(308,279,c),
(323,292,l),
(363,347,o),
(419,393,o),
(493,393,cs),
(594,393,o),
(644,324,o),
(644,228,cs),
(644,138,o),
(611,77,o),
(535,91,c),
(535,8,l),
(677,-26,o),
(758,59,o),
(758,227,cs)
);
}
);
};
layerId = m01;
shapes = (
{
closed = 1;
nodes = (
(304,212,l),
(360,223,o),
(399,205,o),
(399,165,cs),
(399,121,o),
(356,90,o),
(295,90,cs),
(210,90,o),
(151,129,o),
(142,200,c),
(142,223,l),
(139,248,o),
(138,267,o),
(136,305,c),
(50,300,l),
(16,124,o),
(92,-10,o),
(311,-10,cs),
(435,-10,o),
(513,51,o),
(513,161,cs),
(513,257,o),
(429,305,o),
(322,271,c)
);
},
{
closed = 1;
nodes = (
(87,358,l),
(114,374,o),
(144,394,o),
(177,394,cs),
(217,394,o),
(233,366,o),
(266,296,c),
(270,276,l),
(304,212,l),
(372,259,l),
(340,332,l),
(330,352,l),
(295,454,o),
(266,495,o),
(186,495,cs),
(125,495,o),
(73,455,o),
(46,436,c)
);
},
{
closed = 1;
nodes = (
(779,397,o),
(679,500,o),
(521,500,cs),
(428,500,o),
(353,465,o),
(282,361,c),
(263,341,l),
(227,295,o),
(194,242,o),
(143,242,cs),
(134,242,o),
(121,242,o),
(100,244,c),
(90,165,l),
(113,159,o),
(148,156,o),
(166,156,cs),
(233,156,o),
(285,221,o),
(311,267,c),
(333,292,l),
(386,351,o),
(438,393,o),
(508,393,cs),
(601,393,o),
(660,331,o),
(660,232,cs),
(660,143,o),
(612,89,o),
(535,93,c),
(545,0,l),
(689,-20,o),
(779,70,o),
(779,232,cs)
);
}
);
width = 821;
},
{
associatedMasterId = m01;
background = {
shapes = (
{
closed = 1;
nodes = (
(277,271,l),
(284,273,o),
(292,275,o),
(314,275,cs),
(393,275,o),
(412,228,o),
(412,194,cs),
(412,146,o),
(364,90,o),
(279,90,cs),
(207,90,o),
(147,121,o),
(132,170,c),
(126,223,l),
(123,243,o),
(121,270,o),
(120,305,c),
(44,300,l),
(43,285,o),
(41,270,o),
(40,245,cs),
(33,115,o),
(89,-7,o),
(289,-7,cs),
(433,-7,o),
(502,101,o),
(502,194,cs),
(502,253,o),
(462,339,o),
(351,339,cs),
(324,339,o),
(305,330,o),
(285,324,c)
);
},
{
closed = 1;
nodes = (
(81,358,l),
(108,374,o),
(138,394,o),
(171,394,cs),
(211,394,o),
(232,386,o),
(276,307,c),
(326,353,l),
(284,455,o),
(250,496,o),
(180,496,cs),
(119,496,o),
(67,456,o),
(40,437,c)
);
},
{
closed = 1;
nodes = (
(752,386,o),
(660,497,o),
(505,497,cs),
(405,497,o),
(334,455,o),
(276,361,c),
(260,341,l),
(224,295,o),
(198,254,o),
(157,245,c),
(138,240,o),
(115,242,o),
(94,244,c),
(94,165,l),
(117,159,o),
(152,156,o),
(170,158,cs),
(248,167,o),
(281,238,o),
(312,279,c),
(317,292,l),
(357,347,o),
(413,393,o),
(487,393,cs),
(588,393,o),
(648,324,o),
(648,228,cs),
(648,138,o),
(605,77,o),
(529,91,c),
(529,8,l),
(671,-26,o),
(752,59,o),
(752,227,cs)
);
}
);
};
layerId = "5DBA9AEB-4554-40EF-915D-584013CF81BF";
name = "9 Nov 25 at 21:53";
shapes = (
{
closed = 1;
nodes = (
(305,192,l),
(312,194,o),
(320,196,o),
(342,196,cs),
(379,196,o),
(402,178,o),
(402,154,cs),
(402,106,o),
(334,90,o),
(289,90,cs),
(207,90,o),
(147,121,o),
(132,170,c),
(126,223,l),
(123,243,o),
(121,270,o),
(120,305,c),
(44,300,l),
(43,285,o),
(41,270,o),
(40,245,cs),
(33,115,o),
(89,-7,o),
(289,-7,cs),
(433,-7,o),
(502,61,o),
(502,157,cs),
(502,213,o),
(460,280,o),
(389,280,cs),
(362,280,o),
(343,271,o),
(323,265,c)
);
},
{
closed = 1;
nodes = (
(81,367,l),
(108,383,o),
(138,403,o),
(171,403,cs),
(211,403,o),
(216,375,o),
(260,296,c),
(264,276,l),
(305,192,l),
(376,243,l),
(337,332,l),
(326,352,l),
(284,454,o),
(250,495,o),
(180,495,cs),
(119,495,o),
(67,455,o),
(40,436,c)
);
},
{
closed = 1;
nodes = (
(752,386,o),
(660,497,o),
(505,497,cs),
(405,497,o),
(334,455,o),
(276,361,c),
(260,341,l),
(224,295,o),
(198,254,o),
(157,245,c),
(138,240,o),
(115,242,o),
(94,244,c),
(94,165,l),
(117,159,o),
(152,156,o),
(170,158,cs),
(248,167,o),
(271,238,o),
(302,279,c),
(317,292,l),
(357,347,o),
(413,393,o),
(487,393,cs),
(588,393,o),
(638,324,o),
(638,228,cs),
(638,138,o),
(605,77,o),
(529,91,c),
(529,8,l),
(671,-26,o),
(752,59,o),
(752,227,cs)
);
}
);
width = 791;
},
{
anchors = (
{
name = iSign;
pos = (509,500);
}
);
associatedMasterId = m01;
background = {
shapes = (
{
closed = 1;
nodes = (
(703,445,o),
(720,481,o),
(720,526,cs),
(720,618,o),
(659,699,o),
(511,699,cs),
(347,699,o),
(304,600,o),
(304,537,cs),
(304,484,o),
(318,446,o),
(351,405,c),
(439,435,l),
(423,459,o),
(406,490,o),
(406,521,cs),
(406,558,o),
(429,599,o),
(509,599,cs),
(576,599,o),
(618,571,o),
(618,521,cs),
(618,491,o),
(601,459,o),
(585,435,c),
(665,386,l)
);
},
{
closed = 1;
nodes = (
(305,192,l),
(312,194,o),
(320,196,o),
(342,196,cs),
(379,196,o),
(402,178,o),
(402,154,cs),
(402,106,o),
(334,90,o),
(289,90,cs),
(207,90,o),
(147,121,o),
(132,170,c),
(126,223,l),
(123,243,o),
(121,270,o),
(120,305,c),
(44,300,l),
(43,285,o),
(41,270,o),
(40,245,cs),
(33,115,o),
(89,-7,o),
(289,-7,cs),
(433,-7,o),
(502,61,o),
(502,157,cs),
(502,213,o),
(460,280,o),
(389,280,cs),
(362,280,o),
(343,271,o),
(323,265,c)
);
},
{
closed = 1;
nodes = (
(81,367,l),
(108,383,o),
(138,403,o),
(171,403,cs),
(211,403,o),
(216,375,o),
(260,296,c),
(264,276,l),
(305,192,l),
(376,243,l),
(337,332,l),
(326,352,l),
(284,454,o),
(250,495,o),
(180,495,cs),
(119,495,o),
(67,455,o),
(40,436,c)
);
},
{
closed = 1;
nodes = (
(752,386,o),
(660,497,o),
(505,497,cs),
(405,497,o),
(334,455,o),
(276,361,c),
(260,341,l),
(224,295,o),
(198,254,o),
(157,245,c),
(138,240,o),
(115,242,o),
(94,244,c),
(94,165,l),
(117,159,o),
(152,156,o),
(170,158,cs),
(248,167,o),
(271,238,o),
(302,279,c),
(317,292,l),
(357,347,o),
(413,393,o),
(487,393,cs),
(588,393,o),
(638,324,o),
(638,228,cs),
(638,138,o),
(605,77,o),
(529,91,c),
(529,8,l),
(671,-26,o),
(752,59,o),
(752,227,cs)
);
}
);
};
layerId = "41EBFB4B-3510-46E9-82C2-DD108C8FA0B1";
name = "9 Nov 25 at 23:01";
shapes = (
{
closed = 1;
nodes = (
(277,271,l),
(284,273,o),
(292,275,o),
(314,275,cs),
(393,275,o),
(412,228,o),
(412,194,cs),
(412,146,o),
(364,90,o),
(279,90,cs),
(207,90,o),
(147,121,o),
(132,170,c),
(126,223,l),
(123,243,o),
(121,270,o),
(120,305,c),
(44,300,l),
(43,285,o),
(41,270,o),
(40,245,cs),
(33,115,o),
(89,-7,o),
(289,-7,cs),
(433,-7,o),
(502,101,o),
(502,194,cs),
(502,253,o),
(462,339,o),
(351,339,cs),
(324,339,o),
(305,330,o),
(285,324,c)
);
},
{
closed = 1;
nodes = (
(81,358,l),
(108,374,o),
(138,394,o),
(171,394,cs),
(211,394,o),
(232,386,o),
(276,307,c),
(326,353,l),
(284,455,o),
(250,496,o),
(180,496,cs),
(119,496,o),
(67,456,o),
(40,437,c)
);
},
{
closed = 1;
nodes = (
(752,386,o),
(660,497,o),
(505,497,cs),
(405,497,o),
(334,455,o),
(276,361,c),
(260,341,l),
(224,295,o),
(198,254,o),
(157,245,c),
(138,240,o),
(115,242,o),
(94,244,c),
(94,165,l),
(117,159,o),
(152,156,o),
(170,158,cs),
(248,167,o),
(281,238,o),
(312,279,c),
(317,292,l),
(357,347,o),
(413,393,o),
(487,393,cs),
(588,393,o),
(648,324,o),
(648,228,cs),
(648,138,o),
(605,77,o),
(529,91,c),
(529,8,l),
(671,-26,o),
(752,59,o),
(752,227,cs)
);
}
);
width = 791;
}
);
unicode = 3505;
},
{
glyphname = "ma-sinhala";
lastChange = "2025-11-09 20:27:32 +0000";
layers = (
{
associatedMasterId = m01;
background = {
shapes = (
{
closed = 1;
nodes = (
(233,540,o),
(177,521,o),
(122,496,c),
(85,578,l),
(133,606,o),
(215,644,o),
(303,644,cs),
(522,644,o),
(617,496,o),
(617,320,cs),
(617,113,o),
(502,-10,o),
(321,-10,cs),
(187,-10,o),
(39,66,o),
(39,262,cs),
(39,381,o),
(108,471,o),
(224,432,cs),
(248,424,o),
(289,408,o),
(302,398,c),
(299,364,o),
(280,269,o),
(320,269,cs),
(366,269,o),
(358,359,o),
(336,423,c),
(430,433,l),
(446,398,o),
(455,359,o),
(454,322,cs),
(452,242,o),
(414,169,o),
(325,169,cs),
(234,169,o),
(184,249,o),
(206,372,c),
(230,343,l),
(220,349,o),
(204,359,o),
(185,359,cs),
(157,359,o),
(146,314,o),
(146,268,cs),
(146,172,o),
(223,102,o),
(326,102,cs),
(423,102,o),
(510,160,o),
(510,322,cs),
(510,471,o),
(425,540,o),
(293,540,cs)
);
}
);
};
layerId = "254D7B39-BA54-4D31-859E-D86D7A246211";
name = "9 Nov 25 at 22:05";
shapes = (
{
closed = 1;
nodes = (
(233,540,o),
(177,521,o),
(122,496,c),
(85,578,l),
(133,606,o),
(215,644,o),
(303,644,cs),
(522,644,o),
(617,496,o),
(617,320,cs),
(617,113,o),
(502,-10,o),
(321,-10,cs),
(187,-10,o),
(39,66,o),
(39,262,cs),
(39,381,o),
(108,471,o),
(224,432,cs),
(248,424,o),
(289,408,o),
(302,398,c),
(299,364,o),
(280,269,o),
(320,269,cs),
(366,269,o),
(358,359,o),
(336,423,c),
(430,433,l),
(446,398,o),
(455,359,o),
(454,322,cs),
(452,242,o),
(414,169,o),
(325,169,cs),
(234,169,o),
(184,249,o),
(206,372,c),
(230,343,l),
(220,349,o),
(204,359,o),
(185,359,cs),
(157,359,o),
(146,314,o),
(146,268,cs),
(146,172,o),
(223,95,o),
(326,95,cs),
(423,95,o),
(510,160,o),
(510,322,cs),
(510,471,o),
(425,540,o),
(293,540,cs)
);
}
);
width = 656;
},
{
associatedMasterId = m01;
background = {
shapes = (
{
closed = 1;
nodes = (
(233,540,o),
(177,521,o),
(122,496,c),
(85,578,l),
(133,606,o),
(215,644,o),
(303,644,cs),
(522,644,o),
(617,496,o),
(617,320,cs),
(617,113,o),
(502,-10,o),
(321,-10,cs),
(187,-10,o),
(39,66,o),
(39,262,cs),
(39,381,o),
(108,471,o),
(224,432,cs),
(248,424,o),
(289,408,o),
(302,398,c),
(299,364,o),
(280,269,o),
(320,269,cs),
(366,269,o),
(358,359,o),
(336,423,c),
(430,433,l),
(446,398,o),
(455,359,o),
(454,322,cs),
(452,242,o),
(414,169,o),
(325,169,cs),
(234,169,o),
(184,249,o),
(206,372,c),
(230,343,l),
(220,349,o),
(204,359,o),
(185,359,cs),
(157,359,o),
(146,314,o),
(146,268,cs),
(146,172,o),
(223,102,o),
(326,102,cs),
(423,102,o),
(510,160,o),
(510,322,cs),
(510,471,o),
(425,540,o),
(293,540,cs)
);
}
);
};
layerId = "85E468C5-F991-482A-9275-84403C02816B";
name = "9 Nov 25 at 22:06";
shapes = (
{
closed = 1;
nodes = (
(233,540,o),
(177,521,o),
(122,496,c),
(85,578,l),
(133,606,o),
(215,644,o),
(303,644,cs),
(522,644,o),
(617,496,o),
(617,320,cs),
(617,113,o),
(502,-10,o),
(321,-10,cs),
(187,-10,o),
(39,66,o),
(39,262,cs),
(39,381,o),
(108,471,o),
(224,432,cs),
(248,424,o),
(289,408,o),
(302,398,c),
(299,364,o),
(280,269,o),
(320,269,cs),
(366,269,o),
(358,359,o),
(336,423,c),
(430,433,l),
(446,398,o),
(455,359,o),
(454,322,cs),
(452,242,o),
(414,169,o),
(325,169,cs),
(234,169,o),
(184,249,o),
(206,372,c),
(230,343,l),
(220,349,o),
(204,359,o),
(185,359,cs),
(157,359,o),
(146,314,o),
(146,268,cs),
(146,172,o),
(223,95,o),
(326,95,cs),
(423,95,o),
(510,160,o),
(510,322,cs),
(510,471,o),
(425,540,o),
(293,540,cs)
);
}
);
width = 656;
},
{
anchors = (
{
name = uSign;
pos = (588,0);
}
);
background = {
shapes = (
{
closed = 1;
nodes = (
(619,103,o),
(619,-52,o),
(622,-207,c),
(519,-207,l),
(519,-88,o),
(516,32,o),
(516,151,c),
(619,258,l)
);
},
{
closed = 1;
nodes = (
(499,-178,o),
(462,-158,o),
(424,-158,cs),
(341,-158,o),
(323,-214,o),
(222,-214,cs),
(171,-214,o),
(112,-193,o),
(65,-135,c),
(113,-58,l),
(160,-103,o),
(193,-112,o),
(234,-112,cs),
(291,-112,o),
(331,-62,o),
(411,-62,cs),
(473,-62,o),
(518,-92,o),
(540,-129,c),
(577,-142,l),
(519,-207,l)
);
},
{
closed = 1;
nodes = (
(254,540,o),
(198,521,o),
(143,496,c),
(106,578,l),
(154,606,o),
(236,644,o),
(324,644,cs),
(543,644,o),
(638,496,o),
(638,320,cs),
(638,113,o),
(523,-10,o),
(342,-10,cs),
(208,-10,o),
(60,66,o),
(60,262,cs),
(60,381,o),
(129,471,o),
(245,432,cs),
(269,424,o),
(310,408,o),
(323,398,c),
(320,364,o),
(301,269,o),
(341,269,cs),
(387,269,o),
(379,359,o),
(357,423,c),
(451,433,l),
(467,398,o),
(476,359,o),
(475,322,cs),
(473,242,o),
(435,169,o),
(346,169,cs),
(255,169,o),
(205,249,o),
(227,372,c),
(251,343,l),
(241,349,o),
(225,359,o),
(206,359,cs),
(178,359,o),
(167,314,o),
(167,268,cs),
(167,172,o),
(244,95,o),
(347,95,cs),
(444,95,o),
(531,160,o),
(531,322,cs),
(531,471,o),
(446,540,o),
(314,540,cs)
);
}
);
};
layerId = m01;
name = Regular;
shapes = (
{
closed = 1;
nodes = (
(249,540,o),
(193,517,o),
(143,496,c),
(96,580,l),
(166,615,o),
(246,644,o),
(330,644,cs),
(533,644,o),
(660,511,o),
(660,306,cs),
(660,112,o),
(541,-10,o),
(357,-10,cs),
(167,-10,o),
(42,102,o),
(42,262,cs),
(42,381,o),
(129,475,o),
(245,436,cs),
(269,428,o),
(310,408,o),
(323,398,c),
(322,383,o),
(316,355,o),
(316,326,cs),
(316,292,o),
(324,269,o),
(348,269,cs),
(368,269,o),
(376,291,o),
(376,326,cs),
(376,356,o),
(368,391,o),
(359,423,c),
(449,433,l),
(468,398,o),
(478,350,o),
(477,312,cs),
(475,242,o),
(452,169,o),
(353,169,cs),
(255,169,o),
(192,249,o),
(237,372,c),
(251,343,l),
(241,349,o),
(225,359,o),
(208,359,cs),
(178,359,o),
(161,314,o),
(161,268,cs),
(161,169,o),
(240,99,o),
(357,99,cs),
(468,99,o),
(541,179,o),
(541,306,cs),
(541,460,o),
(469,540,o),
(325,540,cs)
);
}
);
width = 702;
},
{
anchors = (
{
name = uSign;
pos = (565,0);
}
);
associatedMasterId = m01;
background = {
shapes = (
{
closed = 1;
nodes = (
(246,540,o),
(190,517,o),
(140,496,c),
(93,580,l),
(163,615,o),
(243,644,o),
(327,644,cs),
(530,644,o),
(657,511,o),
(657,306,cs),
(657,112,o),
(538,-10,o),
(354,-10,cs),
(164,-10,o),
(39,102,o),
(39,262,cs),
(39,381,o),
(126,475,o),
(242,436,cs),
(266,428,o),
(307,408,o),
(320,398,c),
(319,383,o),
(313,355,o),
(313,326,cs),
(313,292,o),
(321,269,o),
(345,269,cs),
(365,269,o),
(373,291,o),
(373,326,cs),
(373,356,o),
(365,391,o),
(356,423,c),
(446,433,l),
(465,398,o),
(475,350,o),
(474,312,cs),
(472,242,o),
(449,169,o),
(350,169,cs),
(252,169,o),
(189,249,o),
(234,372,c),
(248,343,l),
(238,349,o),
(222,359,o),
(205,359,cs),
(175,359,o),
(158,314,o),
(158,268,cs),
(158,169,o),
(237,99,o),
(354,99,cs),
(465,99,o),
(538,179,o),
(538,306,cs),
(538,460,o),
(466,540,o),
(322,540,cs)
);
},
{
closed = 1;
nodes = (
(633,103,o),
(633,-52,o),
(636,-207,c),
(528,-207,l),
(516,-59,l),
(515,8,o),
(516,74,o),
(516,151,c),
(633,258,l)
);
},
{
closed = 1;
nodes = (
(505,-176,o),
(471,-158,o),
(432,-158,cs),
(359,-158,o),
(325,-216,o),
(222,-216,cs),
(101,-216,o),
(47,-142,o),
(83,-28,c),
(192,-49,l),
(190,-96,o),
(213,-108,o),
(251,-108,cs),
(291,-108,o),
(331,-62,o),
(411,-62,cs),
(463,-62,o),
(518,-92,o),
(540,-129,c),
(577,-142,l),
(528,-207,l)
);
}
);
};
layerId = "A3470BF9-FE77-4F1F-80FA-4D464ABA0166";
name = "9 Nov 25 at 22:55";
shapes = (
{
closed = 1;
nodes = (
(246,540,o),
(190,517,o),
(140,496,c),
(93,580,l),
(163,615,o),
(243,644,o),
(327,644,cs),
(530,644,o),
(657,511,o),
(657,306,cs),
(657,112,o),
(538,-10,o),
(354,-10,cs),
(164,-10,o),
(39,102,o),
(39,262,cs),
(39,381,o),
(126,475,o),
(242,436,cs),
(266,428,o),
(307,408,o),
(320,398,c),
(319,383,o),
(313,355,o),
(313,326,cs),
(313,292,o),
(321,269,o),
(345,269,cs),
(365,269,o),
(373,291,o),
(373,326,cs),
(373,356,o),
(365,391,o),
(356,423,c),
(446,433,l),
(465,398,o),
(475,350,o),
(474,312,cs),
(472,242,o),
(449,169,o),
(350,169,cs),
(252,169,o),
(189,249,o),
(234,372,c),
(248,343,l),
(238,349,o),
(222,359,o),
(205,359,cs),
(175,359,o),
(158,314,o),
(158,268,cs),
(158,169,o),
(237,99,o),
(354,99,cs),
(465,99,o),
(538,179,o),
(538,306,cs),
(538,460,o),
(466,540,o),
(322,540,cs)
);
},
{
closed = 1;
nodes = (
(633,103,o),
(633,-61,o),
(636,-216,c),
(528,-216,l),
(516,-59,l),
(515,8,o),
(516,74,o),
(516,151,c),
(633,258,l)
);
},
{
closed = 1;
nodes = (
(342,-158,l),
(192,-216,l),
(83,-216,l),
(83,-49,l),
(202,-49,l),
(202,-108,l),
(245,-108,o),
(332,-77,o),
(372,-62,c),
(428,-84,o),
(484,-107,o),
(540,-129,c),
(577,-142,l),
(528,-216,l)
);
}
);
width = 696;
},
{
anchors = (
{
name = uSign;
pos = (584,0);
}
);
associatedMasterId = m01;
background = {
shapes = (
{
closed = 1;
nodes = (
(246,540,o),
(190,517,o),
(140,496,c),
(93,580,l),
(163,615,o),
(243,644,o),
(327,644,cs),
(530,644,o),
(657,511,o),
(657,306,cs),
(657,112,o),
(538,-10,o),
(354,-10,cs),
(164,-10,o),
(39,102,o),
(39,262,cs),
(39,381,o),
(126,475,o),
(242,436,cs),
(266,428,o),
(307,408,o),
(320,398,c),
(319,383,o),
(313,355,o),
(313,326,cs),
(313,292,o),
(321,269,o),
(345,269,cs),
(365,269,o),
(373,291,o),
(373,326,cs),
(373,356,o),
(365,391,o),
(356,423,c),
(446,433,l),
(465,398,o),
(475,350,o),
(474,312,cs),
(472,242,o),
(449,169,o),
(350,169,cs),
(252,169,o),
(189,249,o),
(234,372,c),
(248,343,l),
(238,349,o),
(222,359,o),
(205,359,cs),
(175,359,o),
(158,314,o),
(158,268,cs),
(158,169,o),
(237,99,o),
(354,99,cs),
(465,99,o),
(538,179,o),
(538,306,cs),
(538,460,o),
(466,540,o),
(322,540,cs)
);
},
{
closed = 1;
nodes = (
(633,103,o),
(633,-52,o),
(636,-207,c),
(528,-207,l),
(516,-59,l),
(515,8,o),
(516,74,o),
(516,151,c),
(633,258,l)
);
},
{
closed = 1;
nodes = (
(505,-176,o),
(471,-158,o),
(432,-158,cs),
(359,-158,o),
(325,-216,o),
(222,-216,cs),
(101,-216,o),
(47,-142,o),
(83,-28,c),
(192,-49,l),
(190,-96,o),
(213,-108,o),
(251,-108,cs),
(291,-108,o),
(331,-62,o),
(411,-62,cs),
(463,-62,o),
(518,-92,o),
(540,-129,c),
(577,-142,l),
(528,-207,l)
);
}
);
};
layerId = "C6B3E06F-CDA0-43F1-82D2-B7993BF73B44";
name = "9 Nov 25 at 23:12";
shapes = (
{
closed = 1;
nodes = (
(246,540,o),
(190,517,o),
(140,496,c),
(93,580,l),
(163,615,o),
(243,644,o),
(327,644,cs),
(530,644,o),
(657,511,o),
(657,306,cs),
(657,112,o),
(538,-10,o),
(354,-10,cs),
(164,-10,o),
(39,102,o),
(39,262,cs),
(39,381,o),
(126,475,o),
(242,436,cs),
(266,428,o),
(307,408,o),
(320,398,c),
(319,383,o),
(313,355,o),
(313,326,cs),
(313,292,o),
(321,269,o),
(345,269,cs),
(365,269,o),
(373,291,o),
(373,326,cs),
(373,356,o),
(365,391,o),
(356,423,c),
(446,433,l),
(465,398,o),
(475,350,o),
(474,312,cs),
(472,242,o),
(449,169,o),
(350,169,cs),
(252,169,o),
(189,249,o),
(234,372,c),
(248,343,l),
(238,349,o),
(222,359,o),
(205,359,cs),
(175,359,o),
(158,314,o),
(158,268,cs),
(158,169,o),
(237,99,o),
(354,99,cs),
(465,99,o),
(538,179,o),
(538,306,cs),
(538,460,o),
(466,540,o),
(322,540,cs)
);
},
{
closed = 1;
nodes = (
(643,103,o),
(643,-52,o),
(646,-207,c),
(538,-207,l),
(526,-59,l),
(525,8,o),
(526,74,o),
(526,151,c),
(643,258,l)
);
},
{
closed = 1;
nodes = (
(515,-176,o),
(481,-158,o),
(442,-158,cs),
(369,-158,o),
(325,-216,o),
(222,-216,cs),
(101,-216,o),
(47,-142,o),
(83,-28,c),
(192,-49,l),
(185,-94,o),
(212,-108,o),
(242,-108,cs),
(298,-108,o),
(350,-64,o),
(432,-64,cs),
(492,-64,o),
(528,-92,o),
(550,-119,c),
(587,-142,l),
(538,-207,l)
);
}
);
width = 696;
}
);
unicode = 3512;
},
{
glyphname = "ya-sinhala";
lastChange = "2025-11-09 20:27:39 +0000";
layers = (
{
background = {
shapes = (
{
closed = 1;
nodes = (
(319,434,o),
(296,438,o),
(273,438,cs),
(163,438,o),
(65,345,o),
(65,212,cs),
(65,58,o),
(166,-6,o),
(274,-6,cs),
(387,-6,o),
(413,75,o),
(423,125,c),
(390,125,l),
(400,76,o),
(440,-6,o),
(545,-6,cs),
(658,-6,o),
(727,78,o),
(727,182,cs),
(727,306,o),
(629,351,o),
(516,351,cs),
(492,351,o),
(476,349,o),
(429,343,c),
(475,301,l),
(491,356,l),
(502,402,o),
(531,416,o),
(571,409,cs),
(608,402,o),
(623,397,o),
(663,378,c),
(696,456,l),
(634,489,o),
(590,501,o),
(544,501,cs),
(441,501,o),
(406,438,o),
(387,359,c),
(367,259,l),
(395,259,o),
(446,259,o),
(490,259,cs),
(566,259,o),
(618,234,o),
(618,181,cs),
(618,138,o),
(590,103,o),
(539,103,cs),
(488,103,o),
(451,131,o),
(451,182,cs),
(451,207,l),
(361,207,l),
(361,182,ls),
(361,131,o),
(332,103,o),
(286,103,cs),
(234,103,o),
(172,136,o),
(172,218,cs),
(172,291,o),
(227,337,o),
(288,337,cs),
(307,337,o),
(317,337,o),
(328,335,c),
(343,427,l)
);
}
);
};
layerId = m01;
shapes = (
{
closed = 1;
nodes = (
(303,435,o),
(280,438,o),
(257,438,cs),
(135,438,o),
(42,348,o),
(42,209,cs),
(42,74,o),
(122,-10,o),
(251,-10,cs),
(336,-10,o),
(393,42,o),
(393,125,c),
(370,125,l),
(370,42,o),
(434,-10,o),
(535,-10,cs),
(646,-10,o),
(716,64,o),
(716,182,cs),
(716,295,o),
(643,349,o),
(506,349,cs),
(472,349,o),
(454,346,o),
(409,343,c),
(450,301,l),
(467,365,o),
(469,409,o),
(535,409,cs),
(572,409,o),
(601,397,o),
(641,378,c),
(674,456,l),
(612,489,o),
(568,501,o),
(522,501,cs),
(368,501,o),
(365,381,o),
(357,259,c),
(395,261,o),
(426,261,o),
(460,262,cs),
(553,264,o),
(598,240,o),
(598,182,cs),
(598,131,o),
(569,99,o),
(524,99,cs),
(467,99,o),
(435,132,o),
(435,190,cs),
(435,207,l),
(329,207,l),
(329,190,ls),
(329,132,o),
(303,99,o),
(257,99,cs),
(200,99,o),
(161,141,o),
(161,209,cs),
(161,291,o),
(208,345,o),
(272,345,cs),
(291,345,o),
(301,343,o),
(312,341,c),
(327,429,l)
);
}
);
width = 758;
},
{
associatedMasterId = m01;
background = {
shapes = (
{
closed = 1;
nodes = (
(293,434,o),
(270,438,o),
(247,438,cs),
(137,438,o),
(39,345,o),
(39,212,cs),
(39,58,o),
(140,-6,o),
(248,-6,cs),
(361,-6,o),
(387,75,o),
(397,125,c),
(364,125,l),
(374,76,o),
(414,-6,o),
(519,-6,cs),
(632,-6,o),
(701,78,o),
(701,182,cs),
(701,306,o),
(603,351,o),
(490,351,cs),
(466,351,o),
(450,349,o),
(403,343,c),
(449,301,l),
(465,356,l),
(476,402,o),
(505,416,o),
(545,409,cs),
(582,402,o),
(597,397,o),
(637,378,c),
(670,456,l),
(608,489,o),
(564,501,o),
(518,501,cs),
(415,501,o),
(380,438,o),
(361,359,c),
(341,259,l),
(369,259,o),
(420,259,o),
(464,259,cs),
(540,259,o),
(592,234,o),
(592,181,cs),
(592,138,o),
(564,103,o),
(513,103,cs),
(462,103,o),
(425,131,o),
(425,182,cs),
(425,207,l),
(335,207,l),
(335,182,ls),
(335,131,o),
(306,103,o),
(260,103,cs),
(208,103,o),
(146,136,o),
(146,218,cs),
(146,291,o),
(201,337,o),
(262,337,cs),
(281,337,o),
(291,337,o),
(302,335,c),
(317,427,l)
);
}
);
};
layerId = "CE7C1F65-0058-47F7-82CA-CF515D2C3FDE";
name = "9 Nov 25 at 23:01";
shapes = (
{
closed = 1;
nodes = (
(293,434,o),
(270,438,o),
(247,438,cs),
(137,438,o),
(39,345,o),
(39,212,cs),
(39,58,o),
(140,-6,o),
(248,-6,cs),
(361,-6,o),
(387,75,o),
(397,125,c),
(364,125,l),
(374,76,o),
(414,-6,o),
(519,-6,cs),
(632,-6,o),
(701,78,o),
(701,182,cs),
(701,306,o),
(603,351,o),
(490,351,cs),
(466,351,o),
(450,349,o),
(403,343,c),
(449,301,l),
(465,356,l),
(476,402,o),
(505,416,o),
(545,409,cs),
(582,402,o),
(597,397,o),
(637,378,c),
(670,456,l),
(608,489,o),
(564,501,o),
(518,501,cs),
(415,501,o),
(380,438,o),
(361,359,c),
(341,259,l),
(369,259,o),
(420,259,o),
(464,259,cs),
(540,259,o),
(592,234,o),
(592,181,cs),
(592,138,o),
(564,103,o),
(513,103,cs),
(462,103,o),
(425,131,o),
(425,182,cs),
(425,207,l),
(335,207,l),
(335,182,ls),
(335,131,o),
(306,103,o),
(260,103,cs),
(208,103,o),
(146,136,o),
(146,218,cs),
(146,291,o),
(201,337,o),
(262,337,cs),
(281,337,o),
(291,337,o),
(302,335,c),
(317,427,l)
);
}
);
width = 720;
},
{
associatedMasterId = m01;
background = {
shapes = (
{
closed = 1;
nodes = (
(293,434,o),
(270,438,o),
(247,438,cs),
(137,438,o),
(39,345,o),
(39,212,cs),
(39,58,o),
(140,-6,o),
(248,-6,cs),
(361,-6,o),
(387,75,o),
(397,125,c),
(364,125,l),
(374,76,o),
(414,-6,o),
(519,-6,cs),
(632,-6,o),
(701,78,o),
(701,182,cs),
(701,306,o),
(603,351,o),
(490,351,cs),
(466,351,o),
(450,349,o),
(403,343,c),
(449,301,l),
(465,356,l),
(476,402,o),
(505,416,o),
(545,409,cs),
(582,402,o),
(597,397,o),
(637,378,c),
(670,456,l),
(608,489,o),
(564,501,o),
(518,501,cs),
(415,501,o),
(380,438,o),
(361,359,c),
(341,259,l),
(369,259,o),
(420,259,o),
(464,259,cs),
(540,259,o),
(592,234,o),
(592,181,cs),
(592,138,o),
(564,103,o),
(513,103,cs),
(462,103,o),
(425,131,o),
(425,182,cs),
(425,207,l),
(335,207,l),
(335,182,ls),
(335,131,o),
(306,103,o),
(260,103,cs),
(208,103,o),
(146,136,o),
(146,218,cs),
(146,291,o),
(201,337,o),
(262,337,cs),
(281,337,o),
(291,337,o),
(302,335,c),
(317,427,l)
);
}
);
};
layerId = "C098D5F0-ABCF-45BA-AF49-19BC45300E4B";
name = "10 Nov 25 at 00:03";
shapes = (
{
closed = 1;
nodes = (
(273,434,o),
(250,438,o),
(227,438,cs),
(117,438,o),
(39,345,o),
(39,212,cs),
(39,58,o),
(130,-6,o),
(238,-6,cs),
(351,-6,o),
(377,75,o),
(377,125,c),
(344,125,l),
(344,66,o),
(394,-6,o),
(499,-6,cs),
(612,-6,o),
(681,78,o),
(681,182,cs),
(681,306,o),
(583,351,o),
(470,351,cs),
(446,351,o),
(430,349,o),
(383,343,c),
(424,301,l),
(413,365,o),
(419,409,o),
(485,409,cs),
(522,409,o),
(557,397,o),
(597,378,c),
(630,456,l),
(568,489,o),
(524,501,o),
(478,501,cs),
(334,501,o),
(311,381,o),
(341,259,c),
(369,262,o),
(400,264,o),
(434,265,cs),
(530,267,o),
(572,239,o),
(572,184,cs),
(572,140,o),
(544,103,o),
(490,103,cs),
(442,103,o),
(405,131,o),
(405,172,c),
(405,207,l),
(315,207,l),
(315,172,l),
(315,131,o),
(286,103,o),
(240,103,cs),
(188,103,o),
(151,136,o),
(151,218,cs),
(151,291,o),
(181,337,o),
(252,337,cs),
(261,337,o),
(271,337,o),
(282,335,c),
(297,427,l)
);
}
);
width = 720;
}
);
unicode = 3514;
},
{
glyphname = "ka-tamil";
lastChange = "2025-11-09 21:34:27 +0000";
layers = (
{
anchors = (
{
name = pulli;
pos = (407,474);
}
);
background = {
shapes = (
{
closed = 1;
nodes = (
(54,261,o),
(115,314,o),
(214,314,cs),
(528,314,ls),
(586,314,o),
(680,285,o),
(680,162,cs),
(680,26,o),
(582,-11,o),
(500,-11,cs),
(479,-11,l),
(462,67,l),
(533,79,o),
(577,106,o),
(577,157,cs),
(577,199,o),
(542,219,o),
(501,219,cs),
(207,221,ls),
(168,221,o),
(144,196,o),
(144,162,cs),
(144,111,o),
(189,83,o),
(250,83,cs),
(305,83,o),
(359,119,o),
(359,196,cs),
(359,262,l),
(362,274,l),
(362,386,l),
(260,386,l),
(260,282,l),
(171,282,l),
(171,481,l),
(562,481,l),
(560,386,l),
(469,386,l),
(469,189,ls),
(469,82,o),
(409,-13,o),
(256,-13,cs),
(116,-13,o),
(54,82,o),
(54,160,cs)
);
}
);
};
layerId = m01;
shapes = (
{
closed = 1;
nodes = (
(39,242,o),
(111,306,o),
(214,306,cs),
(531,306,ls),
(631,306,o),
(693,249,o),
(693,157,cs),
(693,54,o),
(619,-11,o),
(500,-11,cs),
(482,-11,l),
(465,67,l),
(548,81,o),
(580,106,o),
(580,157,cs),
(580,195,o),
(553,217,o),
(499,217,cs),
(227,219,ls),
(180,219,o),
(151,193,o),
(151,152,cs),
(151,110,o),
(189,83,o),
(250,83,cs),
(317,83,o),
(359,127,o),
(359,196,cs),
(359,262,l),
(362,274,l),
(362,393,l),
(252,393,l),
(252,282,l),
(145,282,l),
(145,481,l),
(582,481,l),
(580,393,l),
(469,393,l),
(469,189,ls),
(469,59,o),
(393,-13,o),
(256,-13,cs),
(117,-13,o),
(39,46,o),
(39,152,cs)
);
}
);
width = 722;
}
);
unicode = 2965;
},
{
glyphname = "na-tamil";
lastChange = "2025-11-09 21:35:40 +0000";
layers = (
{
anchors = (
{
name = iMatra;
pos = (374,474);
}
);
background = {
shapes = (
{
closed = 1;
nodes = (
(162,-234,l),
(163,-192,o),
(197,-162,o),
(258,-162,cs),
(384,-161,ls),
(566,-160,o),
(661,-29,o),
(661,122,cs),
(661,257,o),
(595,329,o),
(504,330,cs),
(403,331,o),
(365,249,o),
(363,216,c),
(423,177,l),
(423,211,o),
(447,234,o),
(473,234,cs),
(533,234,o),
(544,181,o),
(543,127,cs),
(541,-7,o),
(470,-60,o),
(340,-60,cs),
(234,-60,ls),
(106,-60,o),
(43,-130,o),
(42,-218,c)
);
},
{
closed = 1;
nodes = (
(186,0,l),
(183,128,o),
(183,257,o),
(186,385,c),
(317,385,l),
(317,0,l),
(424,0,l),
(424,385,l),
(515,385,l),
(519,486,l),
(68,486,l),
(70,324,o),
(70,162,o),
(68,0,c)
);
}
);
};
layerId = m01;
shapes = (
{
closed = 1;
nodes = (
(132,-234,l),
(133,-192,o),
(167,-162,o),
(228,-162,cs),
(404,-161,ls),
(607,-160,o),
(676,-29,o),
(676,112,cs),
(676,257,o),
(595,329,o),
(504,330,cs),
(403,331,o),
(365,249,o),
(363,216,c),
(422,177,l),
(423,211,o),
(451,234,o),
(480,234,cs),
(540,234,o),
(559,181,o),
(558,116,cs),
(556,-7,o),
(495,-60,o),
(385,-60,cs),
(204,-60,ls),
(76,-60,o),
(13,-130,o),
(12,-218,c)
);
},
{
closed = 1;
nodes = (
(186,0,l),
(183,128,o),
(183,257,o),
(186,385,c),
(312,385,l),
(312,0,l),
(424,0,l),
(424,385,l),
(515,385,l),
(519,486,l),
(66,486,l),
(68,324,o),
(68,162,o),
(66,0,c)
);
}
);
width = 718;
}
);
unicode = 2984;
},
{
glyphname = "ma-tamil";
lastChange = "2025-11-09 20:42:00 +0000";
layers = (
{
layerId = m01;
shapes = (
{
closed = 1;
nodes = (
(414,19,l),
(419,120,l),
(162,120,l),
(159,240,o),
(159,360,o),
(162,480,c),
(42,475,l),
(44,323,o),
(44,171,o),
(42,19,c)
);
},
{
closed = 1;
nodes = (
(554,19,o),
(624,101,o),
(624,236,cs),
(624,367,o),
(551,492,o),
(401,490,cs),
(326,489,o),
(279,445,o),
(279,373,cs),
(279,81,l),
(388,81,l),
(388,347,ls),
(388,369,o),
(396,388,o),
(428,388,cs),
(475,388,o),
(516,322,o),
(516,244,cs),
(516,184,o),
(502,119,o),
(412,120,c),
(410,19,l)
);
}
);
width = 666;
}
);
unicode = 2990;
},
{
glyphname = "ya-tamil";
lastChange = "2025-11-09 21:27:26 +0000";
layers = (
{
background = {
shapes = (
{
closed = 1;
nodes = (
(360,51,o),
(312,-17,o),
(202,-17,cs),
(133,-17,o),
(69,29,o),
(69,111,cs),
(69,474,l),
(188,478,l),
(188,164,ls),
(188,108,o),
(217,82,o),
(250,82,cs),
(289,82,o),
(333,110,o),
(333,163,c),
(385,136,l)
);
},
{
closed = 1;
nodes = (
(353,-1,l),
(363,97,l),
(327,75,l),
(330,208,o),
(330,342,o),
(327,475,c),
(441,478,l),
(438,350,o),
(438,221,o),
(441,93,c),
(592,93,l),
(595,220,o),
(595,347,o),
(592,474,c),
(711,478,l),
(707,294,o),
(708,159,o),
(711,-1,c)
);
}
);
};
layerId = m01;
shapes = (
{
closed = 1;
nodes = (
(360,51,o),
(302,-17,o),
(192,-17,cs),
(123,-17,o),
(59,29,o),
(59,121,cs),
(59,474,l),
(178,478,l),
(178,164,ls),
(178,108,o),
(217,82,o),
(250,82,cs),
(289,82,o),
(333,110,o),
(333,163,c),
(385,136,l)
);
},
{
closed = 1;
nodes = (
(356,-1,l),
(363,97,l),
(327,75,l),
(330,208,o),
(330,342,o),
(327,475,c),
(443,478,l),
(440,350,o),
(440,221,o),
(443,93,c),
(604,93,l),
(607,220,o),
(607,347,o),
(604,474,c),
(727,478,l),
(723,294,o),
(724,159,o),
(727,-1,c)
);
}
);
width = 786;
}
);
unicode = 2991;
},
{
glyphname = "ma_uuMatra-tamil";
lastChange = "2025-11-09 21:34:43 +0000";
layers = (
{
background = {
shapes = (
{
closed = 1;
nodes = (
(632,-243,o),
(797,-150,o),
(800,55,c),
(695,55,l),
(695,-76,o),
(573,-138,o),
(450,-138,cs),
(237,-138,o),
(149,15,o),
(149,158,cs),
(149,261,o),
(176,399,o),
(260,399,cs),
(288,399,o),
(309,379,o),
(309,354,cs),
(309,318,o),
(281,309,o),
(254,309,cs),
(222,309,o),
(170,330,o),
(160,365,c),
(136,284,l),
(145,234,o),
(204,205,o),
(266,205,cs),
(374,205,o),
(418,290,o),
(418,360,cs),
(418,430,o),
(372,504,o),
(273,504,cs),
(142,504,o),
(47,379,o),
(47,158,cs),
(47,-31,o),
(165,-243,o),
(448,-243,cs)
);
},
{
closed = 1;
nodes = (
(823,19,l),
(828,120,l),
(571,120,l),
(568,240,o),
(568,360,o),
(571,480,c),
(451,475,l),
(453,323,o),
(453,171,o),
(451,19,c)
);
},
{
closed = 1;
nodes = (
(963,19,o),
(1033,101,o),
(1033,236,cs),
(1033,367,o),
(960,492,o),
(810,490,cs),
(735,489,o),
(688,445,o),
(688,373,cs),
(688,81,l),
(797,81,l),
(797,347,ls),
(797,369,o),
(805,388,o),
(837,388,cs),
(884,388,o),
(925,322,o),
(925,244,cs),
(925,184,o),
(911,119,o),
(821,120,c),
(819,19,l)
);
}
);
};
layerId = m01;
shapes = (
{
closed = 1;
nodes = (
(825,19,l),
(830,120,l),
(573,120,l),
(570,240,o),
(570,360,o),
(573,480,c),
(451,475,l),
(453,323,o),
(453,171,o),
(451,19,c)
);
},
{
closed = 1;
nodes = (
(958,19,o),
(1035,97,o),
(1035,236,cs),
(1035,394,o),
(953,492,o),
(822,490,cs),
(741,489,o),
(690,437,o),
(690,356,cs),
(690,81,l),
(799,81,l),
(799,340,ls),
(799,369,o),
(807,388,o),
(839,388,cs),
(886,388,o),
(927,322,o),
(927,244,cs),
(927,167,o),
(887,119,o),
(823,120,c),
(821,19,l)
);
},
{
closed = 1;
nodes = (
(632,-243,o),
(797,-150,o),
(800,55,c),
(695,55,l),
(695,-76,o),
(573,-138,o),
(450,-138,cs),
(237,-138,o),
(143,12,o),
(143,158,cs),
(143,261,o),
(176,399,o),
(260,399,cs),
(288,399,o),
(309,379,o),
(309,354,cs),
(309,318,o),
(281,309,o),
(254,309,cs),
(222,309,o),
(170,330,o),
(160,365,c),
(136,284,l),
(145,234,o),
(204,205,o),
(266,205,cs),
(374,205,o),
(418,290,o),
(418,360,cs),
(418,430,o),
(372,504,o),
(273,504,cs),
(142,504,o),
(39,379,o),
(39,158,cs),
(39,-41,o),
(165,-243,o),
(448,-243,cs)
);
}
);
width = 1074;
},
{
associatedMasterId = m01;
background = {
shapes = (
{
closed = 1;
nodes = (
(637,-243,o),
(802,-150,o),
(805,55,c),
(700,55,l),
(700,-76,o),
(578,-138,o),
(455,-138,cs),
(242,-138,o),
(154,15,o),
(154,158,cs),
(154,261,o),
(181,399,o),
(265,399,cs),
(293,399,o),
(314,379,o),
(314,354,cs),
(314,318,o),
(286,309,o),
(259,309,cs),
(227,309,o),
(175,330,o),
(165,365,c),
(141,284,l),
(150,234,o),
(209,205,o),
(271,205,cs),
(379,205,o),
(423,290,o),
(423,360,cs),
(423,430,o),
(377,504,o),
(278,504,cs),
(147,504,o),
(52,379,o),
(52,158,cs),
(52,-31,o),
(170,-243,o),
(453,-243,cs)
);
},
{
closed = 1;
nodes = (
(828,19,l),
(833,120,l),
(576,120,l),
(573,240,o),
(573,360,o),
(576,480,c),
(456,475,l),
(458,323,o),
(458,171,o),
(456,19,c)
);
},
{
closed = 1;
nodes = (
(968,19,o),
(1038,101,o),
(1038,236,cs),
(1038,367,o),
(965,492,o),
(815,490,cs),
(740,489,o),
(693,445,o),
(693,373,cs),
(693,81,l),
(802,81,l),
(802,347,ls),
(802,369,o),
(810,388,o),
(842,388,cs),
(889,388,o),
(930,322,o),
(930,244,cs),
(930,184,o),
(916,119,o),
(826,120,c),
(824,19,l)
);
}
);
};
layerId = "A452F1E8-EDDB-4877-844D-E3CEC1930C67";
name = "10 Nov 25 at 02:45";
shapes = (
{
closed = 1;
nodes = (
(636,-243,o),
(804,-150,o),
(807,55,c),
(698,55,l),
(698,-76,o),
(587,-138,o),
(466,-138,cs),
(256,-138,o),
(148,-2,o),
(148,193,cs),
(148,296,o),
(185,389,o),
(255,389,cs),
(286,389,o),
(304,369,o),
(304,345,cs),
(304,308,o),
(276,299,o),
(252,299,cs),
(217,299,o),
(179,330,o),
(159,343,c),
(135,262,l),
(154,234,o),
(206,195,o),
(271,195,cs),
(356,195,o),
(416,259,o),
(416,350,cs),
(416,420,o),
(367,501,o),
(258,501,cs),
(125,501,o),
(32,385,o),
(32,191,cs),
(32,-74,o),
(181,-243,o),
(466,-243,cs)
);
},
{
closed = 1;
nodes = (
(830,19,l),
(835,120,l),
(578,120,l),
(575,240,o),
(575,360,o),
(578,480,c),
(456,475,l),
(458,323,o),
(458,171,o),
(456,19,c)
);
},
{
closed = 1;
nodes = (
(963,19,o),
(1040,97,o),
(1040,236,cs),
(1040,394,o),
(958,492,o),
(827,490,cs),
(746,489,o),
(695,437,o),
(695,356,cs),
(695,81,l),
(804,81,l),
(804,340,ls),
(804,369,o),
(812,388,o),
(844,388,cs),
(891,388,o),
(932,322,o),
(932,244,cs),
(932,167,o),
(892,119,o),
(828,120,c),
(826,19,l)
);
}
);
width = 1082;
}
);
},
{
category = Mark;
glyphname = "al-sign-sinhala";
lastChange = "2025-11-09 20:18:04 +0000";
layers = (
{
anchors = (
{
name = "_al-sign";
pos = (106,474);
}
);
layerId = m01;
shapes = (
{
closed = 1;
nodes = (
(50,476,l),
(162,384,l),
(162,670,l),
(50,664,l)
);
}
);
width = 212;
}
);
production = uni0DCA;
script = sinhala;
subCategory = Nonspacing;
unicode = 3530;
},
{
category = Mark;
glyphname = "i-sign-sinhala";
lastChange = "2025-11-09 20:29:33 +0000";
layers = (
{
anchors = (
{
name = _iSign;
pos = (244,500);
}
);
background = {
shapes = (
{
closed = 1;
nodes = (
(438,445,o),
(455,481,o),
(455,526,cs),
(455,618,o),
(394,699,o),
(246,699,cs),
(82,699,o),
(39,600,o),
(39,537,cs),
(39,484,o),
(53,446,o),
(86,405,c),
(174,435,l),
(158,459,o),
(141,490,o),
(141,521,cs),
(141,558,o),
(164,599,o),
(244,599,cs),
(311,599,o),
(353,571,o),
(353,521,cs),
(353,491,o),
(336,459,o),
(320,435,c),
(400,386,l)
);
}
);
};
layerId = m01;
name = "10 Nov 25 at 01:46";
shapes = (
{
closed = 1;
nodes = (
(478,445,o),
(495,481,o),
(495,526,cs),
(495,618,o),
(434,699,o),
(286,699,cs),
(122,699,o),
(79,600,o),
(79,537,cs),
(79,484,o),
(93,446,o),
(126,405,c),
(214,435,l),
(198,459,o),
(181,490,o),
(181,521,cs),
(181,558,o),
(204,599,o),
(284,599,cs),
(351,599,o),
(393,571,o),
(393,521,cs),
(393,491,o),
(376,459,o),
(360,435,c),
(440,386,l)
);
}
);
width = 494;
},
{
anchors = (
{
name = _iSign;
pos = (244,500);
}
);
associatedMasterId = m01;
background = {
shapes = (
{
closed = 1;
nodes = (
(438,445,o),
(455,481,o),
(455,526,cs),
(455,618,o),
(394,699,o),
(246,699,cs),
(82,699,o),
(39,600,o),
(39,537,cs),
(39,484,o),
(53,446,o),
(86,405,c),
(174,435,l),
(158,459,o),
(141,490,o),
(141,521,cs),
(141,558,o),
(164,599,o),
(244,599,cs),
(311,599,o),
(353,571,o),
(353,521,cs),
(353,491,o),
(336,459,o),
(320,435,c),
(400,386,l)
);
}
);
};
layerId = "1F063163-CBCC-4722-B9BB-F0547D92037B";
name = Regular;
shapes = (
{
closed = 1;
nodes = (
(152,437,l),
(136,514,o),
(181,590,o),
(284,590,cs),
(345,590,o),
(390,556,o),
(390,517,cs),
(390,489,o),
(376,458,o),
(339,435,c),
(422,402,l),
(471,424,o),
(506,476,o),
(506,527,cs),
(506,638,o),
(428,700,o),
(288,700,cs),
(119,700,o),
(-5,550,o),
(82,379,c)
);
}
);
width = 494;
}
);
script = sinhala;
subCategory = Nonspacing;
},
{
category = Mark;
glyphname = "uu-sign-sinhala";
lastChange = "2025-11-09 18:02:37 +0000";
layers = (
{
anchors = (
{
name = _uSign;
pos = (551,0);
}
);
background = {
shapes = (
{
closed = 1;
nodes = (
(560,103,o),
(560,-52,o),
(563,-207,c),
(460,-207,l),
(460,-88,o),
(457,32,o),
(457,151,c),
(560,258,l)
);
},
{
closed = 1;
nodes = (
(440,-178,o),
(403,-158,o),
(365,-158,cs),
(282,-158,o),
(264,-214,o),
(163,-214,cs),
(112,-214,o),
(53,-193,o),
(6,-135,c),
(54,-58,l),
(101,-103,o),
(134,-112,o),
(175,-112,cs),
(232,-112,o),
(272,-62,o),
(352,-62,cs),
(414,-62,o),
(459,-92,o),
(481,-129,c),
(518,-142,l),
(460,-207,l)
);
}
);
};
layerId = m01;
shapes = (
{
closed = 1;
nodes = (
(610,103,o),
(610,-52,o),
(613,-207,c),
(505,-207,l),
(493,-59,l),
(492,8,o),
(493,74,o),
(493,151,c),
(610,258,l)
);
},
{
closed = 1;
nodes = (
(482,-176,o),
(448,-158,o),
(409,-158,cs),
(336,-158,o),
(292,-216,o),
(189,-216,cs),
(68,-216,o),
(14,-142,o),
(50,-28,c),
(159,-49,l),
(152,-94,o),
(179,-108,o),
(209,-108,cs),
(265,-108,o),
(317,-64,o),
(399,-64,cs),
(459,-64,o),
(495,-92,o),
(517,-119,c),
(554,-142,l),
(505,-207,l)
);
}
);
width = 663;
}
);
script = sinhala;
subCategory = Nonspacing;
unicode = 3542;
},
{
category = Mark;
glyphname = "ae-sign-sinhala";
lastChange = "2025-11-09 20:27:08 +0000";
layers = (
{
associatedMasterId = m01;
background = {
shapes = (
{
closed = 1;
nodes = (
(330,85,l),
(313,80,o),
(290,75,o),
(268,75,cs),
(208,75,o),
(170,121,o),
(170,183,cs),
(170,267,o),
(222,320,o),
(273,340,c),
(272,432,l),
(41,432,l),
(41,345,l),
(218,345,l),
(205,362,l),
(90,312,o),
(59,238,o),
(59,158,cs),
(59,43,o),
(140,-17,o),
(241,-17,cs),
(278,-17,o),
(314,-9,o),
(349,5,c)
);
}
);
};
layerId = "FE07E7FE-043B-4954-8F39-263D7ACCCF4E";
name = "10 Nov 25 at 01:50";
shapes = (
{
closed = 1;
nodes = (
(305,90,l),
(288,85,o),
(270,80,o),
(248,80,cs),
(188,80,o),
(140,106,o),
(140,178,cs),
(140,252,o),
(202,300,o),
(303,320,c),
(302,442,l),
(41,442,l),
(41,350,l),
(208,350,l),
(159,341,l),
(75,317,o),
(29,238,o),
(29,166,cs),
(29,53,o),
(99,-17,o),
(227,-17,cs),
(254,-17,o),
(298,-9,o),
(323,5,c)
);
}
);
width = 323;
},
{
background = {
shapes = (
{
closed = 1;
nodes = (
(291,90,l),
(274,85,o),
(256,80,o),
(234,80,cs),
(174,80,o),
(126,106,o),
(126,178,cs),
(126,252,o),
(188,300,o),
(289,320,c),
(288,442,l),
(27,442,l),
(27,350,l),
(194,350,l),
(145,341,l),
(61,317,o),
(15,238,o),
(15,166,cs),
(15,53,o),
(85,-17,o),
(213,-17,cs),
(240,-17,o),
(284,-9,o),
(309,5,c)
);
}
);
};
layerId = m01;
name = Regular;
shapes = (
{
closed = 1;
nodes = (
(316,89,l),
(299,83,o),
(286,79,o),
(264,79,cs),
(194,79,o),
(156,119,o),
(156,183,cs),
(156,267,o),
(208,314,o),
(259,344,c),
(258,442,l),
(27,442,l),
(27,349,l),
(204,349,l),
(198,366,l),
(76,316,o),
(35,238,o),
(35,158,cs),
(35,50,o),
(109,-17,o),
(227,-17,cs),
(274,-17,o),
(300,-10,o),
(335,5,c)
);
}
);
width = 323;
}
);
production = uni0DD0;
script = sinhala;
subCategory = "Spacing Combining";
unicode = 3536;
},
{
glyphname = "pulli-tamil";
lastChange = "2025-11-09 20:45:45 +0000";
layers = (
{
anchors = (
{
name = _pulli;
pos = (116,474);
}
);
layerId = m01;
shapes = (
{
closed = 1;
nodes = (
(158,550,o),
(190,583,o),
(190,624,cs),
(190,666,o),
(158,700,o),
(116,700,cs),
(74,700,o),
(42,666,o),
(42,624,cs),
(42,583,o),
(74,550,o),
(116,550,cs)
);
}
);
width = 232;
}
);
unicode = 3021;
},
{
category = Mark;
glyphname = "iMatra-tamil";
lastChange = "2025-11-09 21:30:11 +0000";
layers = (
{
anchors = (
{
name = _iMatra;
pos = (100,474);
}
);
background = {
shapes = (
{
closed = 1;
nodes = (
(-88,0,l),
(-91,128,o),
(-91,257,o),
(-88,385,c),
(43,385,l),
(43,0,l),
(150,0,l),
(150,385,l),
(241,385,l),
(245,486,l),
(-206,486,l),
(-204,324,o),
(-204,162,o),
(-206,0,c)
);
},
{
closed = 1;
nodes = (
(550,0,l),
(554,149,o),
(550,297,o),
(549,416,cs),
(547,604,o),
(427,703,o),
(267,702,cs),
(147,701,o),
(42,624,o),
(42,506,cs),
(42,442,o),
(83,397,o),
(129,397,c),
(175,440,l),
(159,440,o),
(135,462,o),
(135,485,cs),
(135,540,o),
(177,589,o),
(269,589,cs),
(391,589,o),
(440,505,o),
(445,383,cs),
(450,255,o),
(451,128,o),
(446,0,c)
);
}
);
};
layerId = m01;
shapes = (
{
closed = 1;
nodes = (
(564,0,l),
(564,383,ls),
(564,595,o),
(453,713,o),
(254,712,cs),
(135,711,o),
(39,648,o),
(39,537,cs),
(39,482,o),
(71,438,o),
(129,397,c),
(175,440,l),
(159,446,o),
(135,479,o),
(135,505,cs),
(135,565,o),
(189,599,o),
(254,599,cs),
(388,599,o),
(444,524,o),
(444,353,cs),
(444,0,l)
);
}
);
width = 623;
}
);
production = uni0BBF;
script = tamil;
subCategory = Spacing;
unicode = 3007;
},
{
glyphname = "n-i-sinhala";
lastChange = "2025-11-09 20:14:58 +0000";
layers = (
{
background = {
shapes = (
{
ref = "na-sinhala";
},
{
pos = (268,0);
ref = "i-sign-sinhala";
}
);
};
layerId = m01;
shapes = (
{
ref = "na-sinhala";
},
{
closed = 1;
nodes = (
(366,437,l),
(342,519,o),
(383,591,o),
(483,591,cs),
(551,591,o),
(593,561,o),
(593,514,cs),
(593,486,o),
(579,458,o),
(542,435,c),
(635,392,l),
(680,419,o),
(709,473,o),
(709,530,cs),
(709,634,o),
(624,700,o),
(489,700,cs),
(310,700,o),
(208,540,o),
(310,379,c)
);
}
);
width = 815;
},
{
associatedMasterId = m01;
background = {
shapes = (
{
ref = "na-sinhala";
},
{
pos = (268,0);
ref = "i-sign-sinhala";
}
);
};
layerId = "40BF09E6-1007-4536-B2BE-A34F352C3704";
name = "10 Nov 25 at 01:42";
shapes = (
{
ref = "na-sinhala";
},
{
closed = 1;
nodes = (
(416,437,l),
(393,507,o),
(424,600,o),
(528,600,cs),
(588,600,o),
(633,568,o),
(633,517,cs),
(633,489,o),
(619,458,o),
(582,435,c),
(675,392,l),
(726,423,o),
(749,475,o),
(749,525,cs),
(749,633,o),
(658,700,o),
(527,700,cs),
(364,700,o),
(263,560,o),
(340,379,c)
);
}
);
width = 815;
}
);
},
{
glyphname = mooniak.sinh;
lastChange = "2025-11-09 20:31:41 +0000";
layers = (
{
background = {
shapes = (
{
closed = 1;
nodes = (
(598,103,o),
(598,-52,o),
(601,-207,c),
(498,-207,l),
(498,-88,o),
(495,32,o),
(495,151,c),
(598,258,l)
);
},
{
closed = 1;
nodes = (
(478,-178,o),
(441,-158,o),
(403,-158,cs),
(320,-158,o),
(302,-214,o),
(201,-214,cs),
(150,-214,o),
(91,-193,o),
(44,-135,c),
(92,-58,l),
(139,-103,o),
(172,-112,o),
(213,-112,cs),
(270,-112,o),
(310,-62,o),
(390,-62,cs),
(452,-62,o),
(497,-92,o),
(519,-129,c),
(556,-142,l),
(498,-207,l)
);
},
{
closed = 1;
nodes = (
(233,540,o),
(177,521,o),
(122,496,c),
(85,578,l),
(133,606,o),
(215,644,o),
(303,644,cs),
(522,644,o),
(617,496,o),
(617,320,cs),
(617,113,o),
(502,-10,o),
(321,-10,cs),
(187,-10,o),
(39,66,o),
(39,262,cs),
(39,381,o),
(108,471,o),
(224,432,cs),
(248,424,o),
(289,408,o),
(302,398,c),
(299,364,o),
(280,269,o),
(320,269,cs),
(366,269,o),
(358,359,o),
(336,423,c),
(430,433,l),
(446,398,o),
(455,359,o),
(454,322,cs),
(452,242,o),
(414,169,o),
(325,169,cs),
(234,169,o),
(184,249,o),
(206,372,c),
(230,343,l),
(220,349,o),
(204,359,o),
(185,359,cs),
(157,359,o),
(146,314,o),
(146,268,cs),
(146,172,o),
(223,95,o),
(326,95,cs),
(423,95,o),
(510,160,o),
(510,322,cs),
(510,471,o),
(425,540,o),
(293,540,cs)
);
},
{
closed = 1;
nodes = (
(1382,445,o),
(1399,481,o),
(1399,526,cs),
(1399,618,o),
(1338,699,o),
(1190,699,cs),
(1026,699,o),
(983,600,o),
(983,537,cs),
(983,484,o),
(997,446,o),
(1030,405,c),
(1118,435,l),
(1102,459,o),
(1085,490,o),
(1085,521,cs),
(1085,558,o),
(1108,599,o),
(1188,599,cs),
(1255,599,o),
(1297,571,o),
(1297,521,cs),
(1297,491,o),
(1280,459,o),
(1264,435,c),
(1344,386,l)
);
},
{
closed = 1;
nodes = (
(984,192,l),
(991,194,o),
(999,196,o),
(1021,196,cs),
(1058,196,o),
(1081,178,o),
(1081,154,cs),
(1081,106,o),
(1013,90,o),
(968,90,cs),
(886,90,o),
(826,121,o),
(811,170,c),
(805,223,l),
(802,243,o),
(800,270,o),
(799,305,c),
(723,300,l),
(722,285,o),
(720,270,o),
(719,245,cs),
(712,115,o),
(768,-7,o),
(968,-7,cs),
(1112,-7,o),
(1181,61,o),
(1181,157,cs),
(1181,213,o),
(1139,280,o),
(1068,280,cs),
(1041,280,o),
(1022,271,o),
(1002,265,c)
);
},
{
closed = 1;
nodes = (
(760,367,l),
(787,383,o),
(817,403,o),
(850,403,cs),
(890,403,o),
(895,375,o),
(939,296,c),
(943,276,l),
(984,192,l),
(1055,243,l),
(1016,332,l),
(1005,352,l),
(963,454,o),
(929,495,o),
(859,495,cs),
(798,495,o),
(746,455,o),
(719,436,c)
);
},
{
closed = 1;
nodes = (
(1755,434,o),
(1732,438,o),
(1709,438,cs),
(1599,438,o),
(1521,345,o),
(1521,212,cs),
(1521,58,o),
(1612,-6,o),
(1720,-6,cs),
(1833,-6,o),
(1859,75,o),
(1859,125,c),
(1826,125,l),
(1826,66,o),
(1876,-6,o),
(1981,-6,cs),
(2094,-6,o),
(2163,78,o),
(2163,182,cs),
(2163,306,o),
(2065,351,o),
(1952,351,cs),
(1928,351,o),
(1912,349,o),
(1865,343,c),
(1906,301,l),
(1895,365,o),
(1901,409,o),
(1967,409,cs),
(2004,409,o),
(2039,397,o),
(2079,378,c),
(2112,456,l),
(2050,489,o),
(2006,501,o),
(1960,501,cs),
(1816,501,o),
(1793,381,o),
(1823,259,c),
(1851,262,o),
(1882,264,o),
(1916,265,cs),
(2012,267,o),
(2054,239,o),
(2054,184,cs),
(2054,140,o),
(2026,103,o),
(1972,103,cs),
(1924,103,o),
(1887,131,o),
(1887,172,c),
(1887,207,l),
(1797,207,l),
(1797,172,l),
(1797,131,o),
(1768,103,o),
(1722,103,cs),
(1670,103,o),
(1633,136,o),
(1633,218,cs),
(1633,291,o),
(1663,337,o),
(1734,337,cs),
(1743,337,o),
(1753,337,o),
(1764,335,c),
(1779,427,l)
);
},
{
closed = 1;
nodes = (
(2508,90,l),
(2491,85,o),
(2473,80,o),
(2451,80,cs),
(2391,80,o),
(2343,106,o),
(2343,178,cs),
(2343,252,o),
(2405,300,o),
(2506,320,c),
(2505,442,l),
(2244,442,l),
(2244,350,l),
(2411,350,l),
(2362,341,l),
(2278,317,o),
(2232,238,o),
(2232,166,cs),
(2232,53,o),
(2302,-17,o),
(2430,-17,cs),
(2457,-17,o),
(2501,-9,o),
(2526,5,c)
);
},
{
closed = 1;
nodes = (
(3133,476,l),
(3245,384,l),
(3245,680,l),
(3133,680,l)
);
},
{
closed = 1;
nodes = (
(3031,-8,o),
(3089,43,o),
(3089,154,cs),
(3089,240,o),
(3035,298,o),
(2948,298,c),
(2892,298,l),
(2869,218,l),
(2932,218,l),
(2969,218,o),
(2989,192,o),
(2989,154,cs),
(2989,117,o),
(2977,96,o),
(2945,96,cs),
(2904,96,o),
(2891,130,o),
(2891,171,c),
(2812,171,l),
(2813,135,o),
(2809,96,o),
(2769,96,cs),
(2729,96,o),
(2717,127,o),
(2717,214,c),
(2630,174,l),
(2624,47,o),
(2667,-8,o),
(2764,-8,cs),
(2829,-8,o),
(2859,29,o),
(2861,72,c),
(2846,72,l),
(2847,43,o),
(2883,-8,o),
(2962,-8,cs)
);
},
{
closed = 1;
nodes = (
(2875,307,o),
(2876,308,o),
(2902,322,cs),
(2949,347,o),
(3001,390,o),
(3072,390,cs),
(3149,390,o),
(3226,341,o),
(3226,229,cs),
(3226,138,o),
(3193,77,o),
(3127,91,c),
(3127,8,l),
(3269,-24,o),
(3340,69,o),
(3340,229,cs),
(3340,399,o),
(3238,497,o),
(3089,497,cs),
(2990,497,o),
(2914,451,o),
(2838,391,c),
(2806,377,l),
(2573,201,l),
(2630,137,l),
(2665,152,l),
(2855,292,l)
);
},
{
closed = 1;
nodes = (
(2651,367,l),
(2678,383,o),
(2708,403,o),
(2741,403,cs),
(2776,403,o),
(2791,375,o),
(2819,326,c),
(2834,297,l),
(2869,218,l),
(2961,243,l),
(2912,352,l),
(2901,362,l),
(2861,460,o),
(2820,495,o),
(2754,495,cs),
(2692,495,o),
(2650,464,o),
(2610,436,c)
);
},
{
closed = 1;
nodes = (
(1431,386,o),
(1339,497,o),
(1184,497,cs),
(1084,497,o),
(1013,455,o),
(955,361,c),
(939,341,l),
(903,295,o),
(877,254,o),
(836,245,c),
(817,240,o),
(794,242,o),
(773,244,c),
(773,165,l),
(796,159,o),
(831,156,o),
(849,158,cs),
(927,167,o),
(950,238,o),
(981,279,c),
(996,292,l),
(1036,347,o),
(1092,393,o),
(1166,393,cs),
(1267,393,o),
(1317,324,o),
(1317,228,cs),
(1317,138,o),
(1284,77,o),
(1208,91,c),
(1208,8,l),
(1350,-26,o),
(1431,59,o),
(1431,227,cs)
);
}
);
};
layerId = m01;
name = Regular;
shapes = (
{
ref = "ma-sinhala";
},
{
pos = (37,0);
ref = "uu-sign-sinhala";
},
{
pos = (702,0);
ref = "na-sinhala";
},
{
pos = (933,0);
ref = "i-sign-sinhala";
},
{
pos = (1523,0);
ref = "ya-sinhala";
},
{
pos = (2281,0);
ref = "ae-sign-sinhala";
},
{
pos = (2604,0);
ref = "ka-sinhala";
},
{
pos = (3168,0);
ref = "al-sign-sinhala";
}
);
width = 3474;
},
{
associatedMasterId = m01;
background = {
shapes = (
{
closed = 1;
nodes = (
(598,103,o),
(598,-52,o),
(601,-207,c),
(498,-207,l),
(498,-88,o),
(495,32,o),
(495,151,c),
(598,258,l)
);
},
{
closed = 1;
nodes = (
(478,-178,o),
(439,-158,o),
(391,-158,cs),
(318,-158,o),
(296,-214,o),
(202,-214,cs),
(134,-214,o),
(82,-176,o),
(44,-108,c),
(120,-44,l),
(152,-88,o),
(172,-112,o),
(213,-112,cs),
(273,-112,o),
(314,-55,o),
(394,-55,cs),
(450,-55,o),
(497,-92,o),
(519,-129,c),
(556,-142,l),
(498,-207,l)
);
},
{
closed = 1;
nodes = (
(233,540,o),
(177,521,o),
(122,496,c),
(85,578,l),
(133,606,o),
(215,644,o),
(303,644,cs),
(522,644,o),
(617,496,o),
(617,320,cs),
(617,113,o),
(502,-10,o),
(321,-10,cs),
(187,-10,o),
(39,66,o),
(39,262,cs),
(39,381,o),
(108,471,o),
(224,432,cs),
(248,424,o),
(289,408,o),
(302,398,c),
(299,364,o),
(280,269,o),
(320,269,cs),
(366,269,o),
(358,359,o),
(336,423,c),
(430,433,l),
(446,398,o),
(455,359,o),
(454,322,cs),
(452,242,o),
(414,169,o),
(325,169,cs),
(234,169,o),
(184,249,o),
(206,372,c),
(230,343,l),
(220,349,o),
(204,359,o),
(185,359,cs),
(157,359,o),
(146,314,o),
(146,268,cs),
(146,172,o),
(223,102,o),
(326,102,cs),
(423,102,o),
(510,160,o),
(510,322,cs),
(510,471,o),
(425,540,o),
(293,540,cs)
);
},
{
closed = 1;
nodes = (
(1367,445,o),
(1384,481,o),
(1384,526,cs),
(1384,618,o),
(1323,699,o),
(1175,699,cs),
(1011,699,o),
(968,600,o),
(968,537,cs),
(968,484,o),
(982,446,o),
(1015,405,c),
(1103,435,l),
(1087,459,o),
(1070,490,o),
(1070,521,cs),
(1070,558,o),
(1093,599,o),
(1173,599,cs),
(1240,599,o),
(1282,571,o),
(1282,521,cs),
(1282,491,o),
(1265,459,o),
(1249,435,c),
(1329,386,l)
);
},
{
closed = 1;
nodes = (
(969,192,l),
(975,192,o),
(981,192,o),
(1003,192,cs),
(1037,192,o),
(1052,178,o),
(1052,154,cs),
(1052,106,o),
(984,90,o),
(953,90,cs),
(871,90,o),
(811,121,o),
(796,170,c),
(790,223,l),
(787,243,o),
(785,270,o),
(784,305,c),
(708,300,l),
(707,285,o),
(705,270,o),
(704,245,cs),
(697,115,o),
(753,-7,o),
(953,-7,cs),
(1083,-7,o),
(1152,61,o),
(1152,157,cs),
(1152,213,o),
(1116,277,o),
(1044,277,c),
(1016,277,l)
);
},
{
closed = 1;
nodes = (
(745,367,l),
(772,383,o),
(802,403,o),
(835,403,cs),
(875,403,o),
(880,375,o),
(924,296,c),
(928,276,l),
(969,192,l),
(1040,243,l),
(1001,332,l),
(990,352,l),
(948,454,o),
(914,495,o),
(844,495,cs),
(783,495,o),
(731,455,o),
(704,436,c)
);
},
{
closed = 1;
nodes = (
(1150,14,l),
(1165,6,o),
(1201,-4,o),
(1229,-5,c),
(1333,-5,o),
(1416,62,o),
(1416,240,cs),
(1416,386,o),
(1324,497,o),
(1169,497,cs),
(1069,497,o),
(998,455,o),
(940,361,c),
(924,341,l),
(888,295,o),
(862,254,o),
(821,245,c),
(802,240,o),
(779,242,o),
(758,244,c),
(758,165,l),
(781,159,o),
(816,156,o),
(834,158,cs),
(912,167,o),
(935,238,o),
(966,279,c),
(981,292,l),
(1021,347,o),
(1077,393,o),
(1151,393,cs),
(1252,393,o),
(1302,324,o),
(1302,231,cs),
(1302,172,o),
(1280,103,o),
(1227,103,cs),
(1208,103,o),
(1172,112,o),
(1172,112,c)
);
},
{
closed = 1;
nodes = (
(1722,434,o),
(1699,438,o),
(1676,438,cs),
(1566,438,o),
(1488,345,o),
(1488,212,cs),
(1488,58,o),
(1579,-6,o),
(1687,-6,cs),
(1800,-6,o),
(1826,75,o),
(1826,125,c),
(1793,125,l),
(1793,66,o),
(1843,-6,o),
(1948,-6,cs),
(2061,-6,o),
(2130,78,o),
(2130,182,cs),
(2130,306,o),
(2032,351,o),
(1919,351,cs),
(1895,351,o),
(1879,349,o),
(1832,343,c),
(1873,301,l),
(1862,365,o),
(1868,409,o),
(1934,409,cs),
(1971,409,o),
(2006,397,o),
(2046,378,c),
(2079,456,l),
(2017,489,o),
(1973,501,o),
(1927,501,cs),
(1783,501,o),
(1760,381,o),
(1790,259,c),
(1818,262,o),
(1849,264,o),
(1883,265,cs),
(1979,267,o),
(2021,239,o),
(2021,184,cs),
(2021,140,o),
(1993,103,o),
(1939,103,cs),
(1891,103,o),
(1854,131,o),
(1854,172,c),
(1854,207,l),
(1764,207,l),
(1764,172,l),
(1764,131,o),
(1735,103,o),
(1689,103,cs),
(1637,103,o),
(1600,136,o),
(1600,218,cs),
(1600,291,o),
(1630,337,o),
(1701,337,cs),
(1710,337,o),
(1720,337,o),
(1731,335,c),
(1746,427,l)
);
},
{
closed = 1;
nodes = (
(2465,90,l),
(2448,85,o),
(2430,80,o),
(2408,80,cs),
(2348,80,o),
(2300,106,o),
(2300,178,cs),
(2300,252,o),
(2362,300,o),
(2463,320,c),
(2462,442,l),
(2201,442,l),
(2201,350,l),
(2368,350,l),
(2319,341,l),
(2235,317,o),
(2189,238,o),
(2189,166,cs),
(2189,53,o),
(2259,-17,o),
(2387,-17,cs),
(2414,-17,o),
(2458,-9,o),
(2483,5,c)
);
},
{
closed = 1;
nodes = (
(3091,476,l),
(3203,384,l),
(3203,680,l),
(3091,680,l)
);
},
{
closed = 1;
nodes = (
(2989,-8,o),
(3047,43,o),
(3047,154,cs),
(3047,240,o),
(2993,298,o),
(2906,298,c),
(2850,298,l),
(2827,218,l),
(2890,218,l),
(2927,218,o),
(2947,192,o),
(2947,154,cs),
(2947,117,o),
(2935,96,o),
(2903,96,cs),
(2862,96,o),
(2849,130,o),
(2849,171,c),
(2770,171,l),
(2771,135,o),
(2767,96,o),
(2727,96,cs),
(2687,96,o),
(2675,137,o),
(2675,214,c),
(2588,174,l),
(2582,47,o),
(2625,-8,o),
(2722,-8,cs),
(2787,-8,o),
(2817,29,o),
(2819,72,c),
(2804,72,l),
(2805,43,o),
(2841,-8,o),
(2920,-8,cs)
);
},
{
closed = 1;
nodes = (
(2833,307,o),
(2834,308,o),
(2860,322,cs),
(2907,347,o),
(2959,390,o),
(3030,390,cs),
(3126,390,o),
(3184,341,o),
(3184,236,cs),
(3184,138,o),
(3153,77,o),
(3085,121,c),
(3085,0,l),
(3217,-26,o),
(3298,42,o),
(3298,236,cs),
(3298,405,o),
(3196,497,o),
(3047,497,cs),
(2948,497,o),
(2872,451,o),
(2796,391,c),
(2764,377,l),
(2531,201,l),
(2531,84,l),
(2813,292,l)
);
},
{
closed = 1;
nodes = (
(2609,367,l),
(2636,383,o),
(2666,403,o),
(2699,403,cs),
(2734,403,o),
(2749,375,o),
(2777,326,c),
(2792,297,l),
(2827,218,l),
(2919,243,l),
(2870,352,l),
(2859,362,l),
(2819,460,o),
(2778,495,o),
(2712,495,cs),
(2650,495,o),
(2608,464,o),
(2568,436,c)
);
}
);
};
layerId = "F7B780D2-355C-4D19-996B-4E29E0CB3B0F";
name = "16 Feb 24 at 14:36";
shapes = (
{
closed = 1;
nodes = (
(598,103,o),
(598,-52,o),
(601,-207,c),
(498,-207,l),
(498,-88,o),
(495,32,o),
(495,151,c),
(598,258,l)
);
},
{
closed = 1;
nodes = (
(478,-178,o),
(439,-158,o),
(391,-158,cs),
(318,-158,o),
(296,-214,o),
(202,-214,cs),
(134,-214,o),
(82,-176,o),
(44,-108,c),
(120,-44,l),
(152,-88,o),
(172,-112,o),
(213,-112,cs),
(273,-112,o),
(314,-55,o),
(394,-55,cs),
(450,-55,o),
(497,-92,o),
(519,-129,c),
(556,-142,l),
(498,-207,l)
);
},
{
closed = 1;
nodes = (
(233,540,o),
(177,521,o),
(122,496,c),
(85,578,l),
(133,606,o),
(215,644,o),
(303,644,cs),
(522,644,o),
(617,496,o),
(617,320,cs),
(617,113,o),
(502,-10,o),
(321,-10,cs),
(187,-10,o),
(39,66,o),
(39,262,cs),
(39,381,o),
(108,471,o),
(224,432,cs),
(248,424,o),
(289,408,o),
(302,398,c),
(299,364,o),
(280,269,o),
(320,269,cs),
(366,269,o),
(358,359,o),
(336,423,c),
(430,433,l),
(446,398,o),
(455,359,o),
(454,322,cs),
(452,242,o),
(414,169,o),
(325,169,cs),
(234,169,o),
(184,249,o),
(206,372,c),
(230,343,l),
(220,349,o),
(204,359,o),
(185,359,cs),
(157,359,o),
(146,314,o),
(146,268,cs),
(146,172,o),
(223,102,o),
(326,102,cs),
(423,102,o),
(510,160,o),
(510,322,cs),
(510,471,o),
(425,540,o),
(293,540,cs)
);
},
{
closed = 1;
nodes = (
(1367,445,o),
(1384,481,o),
(1384,526,cs),
(1384,618,o),
(1323,699,o),
(1175,699,cs),
(1011,699,o),
(968,600,o),
(968,537,cs),
(968,484,o),
(982,446,o),
(1015,405,c),
(1103,435,l),
(1087,459,o),
(1070,490,o),
(1070,521,cs),
(1070,558,o),
(1093,599,o),
(1173,599,cs),
(1240,599,o),
(1282,571,o),
(1282,521,cs),
(1282,491,o),
(1265,459,o),
(1249,435,c),
(1329,386,l)
);
},
{
closed = 1;
nodes = (
(969,192,l),
(976,194,o),
(984,196,o),
(1006,196,cs),
(1043,196,o),
(1066,178,o),
(1066,154,cs),
(1066,106,o),
(998,90,o),
(953,90,cs),
(871,90,o),
(811,121,o),
(796,170,c),
(790,223,l),
(787,243,o),
(785,270,o),
(784,305,c),
(708,300,l),
(707,285,o),
(705,270,o),
(704,245,cs),
(697,115,o),
(753,-7,o),
(953,-7,cs),
(1097,-7,o),
(1166,61,o),
(1166,157,cs),
(1166,213,o),
(1124,280,o),
(1053,280,cs),
(1026,280,o),
(1007,271,o),
(987,265,c)
);
},
{
closed = 1;
nodes = (
(745,367,l),
(772,383,o),
(802,403,o),
(835,403,cs),
(875,403,o),
(880,375,o),
(924,296,c),
(928,276,l),
(969,192,l),
(1040,243,l),
(1001,332,l),
(990,352,l),
(948,454,o),
(914,495,o),
(844,495,cs),
(783,495,o),
(731,455,o),
(704,436,c)
);
},
{
closed = 1;
nodes = (
(1722,434,o),
(1699,438,o),
(1676,438,cs),
(1566,438,o),
(1488,345,o),
(1488,212,cs),
(1488,58,o),
(1579,-6,o),
(1687,-6,cs),
(1800,-6,o),
(1826,75,o),
(1826,125,c),
(1793,125,l),
(1793,66,o),
(1843,-6,o),
(1948,-6,cs),
(2061,-6,o),
(2130,78,o),
(2130,182,cs),
(2130,306,o),
(2032,351,o),
(1919,351,cs),
(1895,351,o),
(1879,349,o),
(1832,343,c),
(1873,301,l),
(1862,365,o),
(1868,409,o),
(1934,409,cs),
(1971,409,o),
(2006,397,o),
(2046,378,c),
(2079,456,l),
(2017,489,o),
(1973,501,o),
(1927,501,cs),
(1783,501,o),
(1760,381,o),
(1790,259,c),
(1818,262,o),
(1849,264,o),
(1883,265,cs),
(1979,267,o),
(2021,239,o),
(2021,184,cs),
(2021,140,o),
(1993,103,o),
(1939,103,cs),
(1891,103,o),
(1854,131,o),
(1854,172,c),
(1854,207,l),
(1764,207,l),
(1764,172,l),
(1764,131,o),
(1735,103,o),
(1689,103,cs),
(1637,103,o),
(1600,136,o),
(1600,218,cs),
(1600,291,o),
(1630,337,o),
(1701,337,cs),
(1710,337,o),
(1720,337,o),
(1731,335,c),
(1746,427,l)
);
},
{
closed = 1;
nodes = (
(2465,90,l),
(2448,85,o),
(2430,80,o),
(2408,80,cs),
(2348,80,o),
(2300,106,o),
(2300,178,cs),
(2300,252,o),
(2362,300,o),
(2463,320,c),
(2462,442,l),
(2201,442,l),
(2201,350,l),
(2368,350,l),
(2319,341,l),
(2235,317,o),
(2189,238,o),
(2189,166,cs),
(2189,53,o),
(2259,-17,o),
(2387,-17,cs),
(2414,-17,o),
(2458,-9,o),
(2483,5,c)
);
},
{
closed = 1;
nodes = (
(3071,476,l),
(3183,384,l),
(3183,680,l),
(3071,680,l)
);
},
{
closed = 1;
nodes = (
(2969,-8,o),
(3027,43,o),
(3027,154,cs),
(3027,240,o),
(2973,298,o),
(2886,298,c),
(2830,298,l),
(2807,218,l),
(2870,218,l),
(2907,218,o),
(2927,192,o),
(2927,154,cs),
(2927,117,o),
(2915,96,o),
(2883,96,cs),
(2842,96,o),
(2829,130,o),
(2829,171,c),
(2750,171,l),
(2751,135,o),
(2747,96,o),
(2707,96,cs),
(2667,96,o),
(2655,127,o),
(2655,214,c),
(2568,174,l),
(2562,47,o),
(2605,-8,o),
(2702,-8,cs),
(2767,-8,o),
(2797,29,o),
(2799,72,c),
(2784,72,l),
(2785,43,o),
(2821,-8,o),
(2900,-8,cs)
);
},
{
closed = 1;
nodes = (
(2813,307,o),
(2814,308,o),
(2840,322,cs),
(2887,347,o),
(2939,390,o),
(3010,390,cs),
(3087,390,o),
(3164,341,o),
(3164,229,cs),
(3164,138,o),
(3131,77,o),
(3065,91,c),
(3065,8,l),
(3207,-24,o),
(3278,69,o),
(3278,229,cs),
(3278,399,o),
(3176,497,o),
(3027,497,cs),
(2928,497,o),
(2852,451,o),
(2776,391,c),
(2744,377,l),
(2511,201,l),
(2568,137,l),
(2603,152,l),
(2793,292,l)
);
},
{
closed = 1;
nodes = (
(2589,367,l),
(2616,383,o),
(2646,403,o),
(2679,403,cs),
(2714,403,o),
(2729,375,o),
(2757,326,c),
(2772,297,l),
(2807,218,l),
(2899,243,l),
(2850,352,l),
(2839,362,l),
(2799,460,o),
(2758,495,o),
(2692,495,cs),
(2630,495,o),
(2588,464,o),
(2548,436,c)
);
},
{
closed = 1;
nodes = (
(1416,386,o),
(1324,497,o),
(1169,497,cs),
(1069,497,o),
(998,455,o),
(940,361,c),
(924,341,l),
(888,295,o),
(862,254,o),
(821,245,c),
(802,240,o),
(779,242,o),
(758,244,c),
(758,165,l),
(781,159,o),
(816,156,o),
(834,158,cs),
(912,167,o),
(935,238,o),
(966,279,c),
(981,292,l),
(1021,347,o),
(1077,393,o),
(1151,393,cs),
(1252,393,o),
(1302,324,o),
(1302,228,cs),
(1302,138,o),
(1269,77,o),
(1193,91,c),
(1193,8,l),
(1335,-26,o),
(1416,59,o),
(1416,227,cs)
);
}
);
width = 3328;
},
{
associatedMasterId = m01;
layerId = "826B4453-64E2-42DD-A47E-250DCB9BAD63";
name = "18 Feb 24 at 14:55";
shapes = (
{
closed = 1;
nodes = (
(598,103,o),
(598,-52,o),
(601,-207,c),
(498,-207,l),
(498,-88,o),
(495,32,o),
(495,151,c),
(598,258,l)
);
},
{
closed = 1;
nodes = (
(478,-178,o),
(439,-158,o),
(391,-158,cs),
(318,-158,o),
(296,-214,o),
(202,-214,cs),
(134,-214,o),
(82,-176,o),
(44,-108,c),
(120,-44,l),
(152,-88,o),
(172,-112,o),
(213,-112,cs),
(273,-112,o),
(314,-55,o),
(394,-55,cs),
(450,-55,o),
(497,-92,o),
(519,-129,c),
(556,-142,l),
(498,-207,l)
);
},
{
closed = 1;
nodes = (
(1367,445,o),
(1384,481,o),
(1384,526,cs),
(1384,618,o),
(1323,699,o),
(1175,699,cs),
(1011,699,o),
(968,600,o),
(968,537,cs),
(968,484,o),
(982,446,o),
(1015,405,c),
(1103,435,l),
(1087,459,o),
(1070,490,o),
(1070,521,cs),
(1070,558,o),
(1093,599,o),
(1173,599,cs),
(1240,599,o),
(1282,571,o),
(1282,521,cs),
(1282,491,o),
(1265,459,o),
(1249,435,c),
(1329,386,l)
);
},
{
closed = 1;
nodes = (
(969,192,l),
(975,192,o),
(981,192,o),
(1003,192,cs),
(1037,192,o),
(1052,178,o),
(1052,154,cs),
(1052,106,o),
(984,90,o),
(953,90,cs),
(871,90,o),
(811,121,o),
(796,170,c),
(790,223,l),
(787,243,o),
(785,270,o),
(784,305,c),
(708,300,l),
(707,285,o),
(705,270,o),
(704,245,cs),
(697,115,o),
(753,-7,o),
(953,-7,cs),
(1083,-7,o),
(1152,61,o),
(1152,157,cs),
(1152,213,o),
(1116,277,o),
(1044,277,c),
(1016,277,l)
);
},
{
closed = 1;
nodes = (
(745,367,l),
(772,383,o),
(802,403,o),
(835,403,cs),
(875,403,o),
(880,375,o),
(924,296,c),
(928,276,l),
(969,192,l),
(1040,243,l),
(1001,332,l),
(990,352,l),
(948,454,o),
(914,495,o),
(844,495,cs),
(783,495,o),
(731,455,o),
(704,436,c)
);
},
{
closed = 1;
nodes = (
(1150,14,l),
(1165,6,o),
(1201,-4,o),
(1229,-5,c),
(1333,-5,o),
(1416,62,o),
(1416,240,cs),
(1416,386,o),
(1324,497,o),
(1169,497,cs),
(1069,497,o),
(998,455,o),
(940,361,c),
(924,341,l),
(888,295,o),
(862,254,o),
(821,245,c),
(802,240,o),
(779,242,o),
(758,244,c),
(758,165,l),
(781,159,o),
(816,156,o),
(834,158,cs),
(912,167,o),
(935,238,o),
(966,279,c),
(981,292,l),
(1021,347,o),
(1077,393,o),
(1151,393,cs),
(1252,393,o),
(1302,324,o),
(1302,231,cs),
(1302,172,o),
(1280,103,o),
(1227,103,cs),
(1208,103,o),
(1172,112,o),
(1172,112,c)
);
},
{
closed = 1;
nodes = (
(1722,434,o),
(1699,438,o),
(1676,438,cs),
(1566,438,o),
(1488,345,o),
(1488,212,cs),
(1488,58,o),
(1579,-6,o),
(1687,-6,cs),
(1800,-6,o),
(1826,75,o),
(1826,125,c),
(1793,125,l),
(1793,66,o),
(1843,-6,o),
(1948,-6,cs),
(2061,-6,o),
(2130,78,o),
(2130,182,cs),
(2130,306,o),
(2032,351,o),
(1919,351,cs),
(1895,351,o),
(1879,349,o),
(1832,343,c),
(1873,301,l),
(1862,365,o),
(1868,409,o),
(1934,409,cs),
(1971,409,o),
(2006,397,o),
(2046,378,c),
(2079,456,l),
(2017,489,o),
(1973,501,o),
(1927,501,cs),
(1783,501,o),
(1760,381,o),
(1790,259,c),
(1818,262,o),
(1849,264,o),
(1883,265,cs),
(1979,267,o),
(2021,239,o),
(2021,184,cs),
(2021,140,o),
(1993,103,o),
(1939,103,cs),
(1891,103,o),
(1854,131,o),
(1854,172,c),
(1854,207,l),
(1764,207,l),
(1764,172,l),
(1764,131,o),
(1735,103,o),
(1689,103,cs),
(1637,103,o),
(1600,136,o),
(1600,218,cs),
(1600,291,o),
(1630,337,o),
(1701,337,cs),
(1710,337,o),
(1720,337,o),
(1731,335,c),
(1746,427,l)
);
},
{
closed = 1;
nodes = (
(2465,90,l),
(2448,85,o),
(2430,80,o),
(2408,80,cs),
(2348,80,o),
(2300,106,o),
(2300,178,cs),
(2300,252,o),
(2362,300,o),
(2463,320,c),
(2462,442,l),
(2201,442,l),
(2201,350,l),
(2368,350,l),
(2319,341,l),
(2235,317,o),
(2189,238,o),
(2189,166,cs),
(2189,53,o),
(2259,-17,o),
(2387,-17,cs),
(2414,-17,o),
(2458,-9,o),
(2483,5,c)
);
},
{
closed = 1;
nodes = (
(3091,476,l),
(3203,384,l),
(3203,680,l),
(3091,680,l)
);
},
{
closed = 1;
nodes = (
(2989,-8,o),
(3047,43,o),
(3047,154,cs),
(3047,240,o),
(2993,298,o),
(2906,298,c),
(2850,298,l),
(2827,218,l),
(2890,218,l),
(2927,218,o),
(2947,192,o),
(2947,154,cs),
(2947,117,o),
(2935,96,o),
(2903,96,cs),
(2862,96,o),
(2849,130,o),
(2849,171,c),
(2770,171,l),
(2771,135,o),
(2767,96,o),
(2727,96,cs),
(2687,96,o),
(2675,137,o),
(2675,214,c),
(2588,174,l),
(2582,47,o),
(2625,-8,o),
(2722,-8,cs),
(2787,-8,o),
(2817,29,o),
(2819,72,c),
(2804,72,l),
(2805,43,o),
(2841,-8,o),
(2920,-8,cs)
);
},
{
closed = 1;
nodes = (
(2833,307,o),
(2834,308,o),
(2860,322,cs),
(2907,347,o),
(2959,390,o),
(3030,390,cs),
(3126,390,o),
(3184,341,o),
(3184,236,cs),
(3184,138,o),
(3153,77,o),
(3085,121,c),
(3085,0,l),
(3217,-26,o),
(3298,42,o),
(3298,236,cs),
(3298,405,o),
(3196,497,o),
(3047,497,cs),
(2948,497,o),
(2872,451,o),
(2796,391,c),
(2764,377,l),
(2531,201,l),
(2531,84,l),
(2813,292,l)
);
},
{
closed = 1;
nodes = (
(2609,367,l),
(2636,383,o),
(2666,403,o),
(2699,403,cs),
(2734,403,o),
(2749,375,o),
(2777,326,c),
(2792,297,l),
(2827,218,l),
(2919,243,l),
(2870,352,l),
(2859,362,l),
(2819,460,o),
(2778,495,o),
(2712,495,cs),
(2650,495,o),
(2608,464,o),
(2568,436,c)
);
},
{
closed = 1;
nodes = (
(434,423,l),
(448,390,o),
(455,355,o),
(454,322,cs),
(452,242,o),
(414,169,o),
(325,169,cs),
(234,169,o),
(184,249,o),
(206,372,c),
(230,343,l),
(220,349,o),
(204,359,o),
(185,359,cs),
(157,359,o),
(146,314,o),
(146,268,cs),
(146,172,o),
(223,102,o),
(326,102,cs),
(423,102,o),
(510,160,o),
(510,322,cs),
(510,471,o),
(425,540,o),
(293,540,cs),
(233,540,o),
(177,521,o),
(122,496,c),
(85,578,l),
(133,606,o),
(215,644,o),
(303,644,cs),
(522,644,o),
(617,496,o),
(617,320,cs),
(617,113,o),
(502,-10,o),
(321,-10,cs),
(187,-10,o),
(39,66,o),
(39,262,cs),
(39,381,o),
(108,471,o),
(224,432,cs),
(248,424,o),
(289,408,o),
(302,398,c),
(299,364,o),
(280,269,o),
(320,269,cs),
(365,269,o),
(358,356,o),
(337,420,c)
);
}
);
width = 3328;
},
{
associatedMasterId = m01;
background = {
shapes = (
{
closed = 1;
nodes = (
(598,103,o),
(598,-52,o),
(601,-207,c),
(498,-207,l),
(498,-88,o),
(495,32,o),
(495,151,c),
(598,258,l)
);
},
{
closed = 1;
nodes = (
(478,-178,o),
(441,-158,o),
(403,-158,cs),
(320,-158,o),
(302,-214,o),
(201,-214,cs),
(150,-214,o),
(91,-193,o),
(44,-135,c),
(92,-58,l),
(139,-103,o),
(172,-112,o),
(213,-112,cs),
(270,-112,o),
(310,-62,o),
(390,-62,cs),
(452,-62,o),
(497,-92,o),
(519,-129,c),
(556,-142,l),
(498,-207,l)
);
},
{
closed = 1;
nodes = (
(233,540,o),
(177,521,o),
(122,496,c),
(85,578,l),
(133,606,o),
(215,644,o),
(303,644,cs),
(522,644,o),
(617,496,o),
(617,320,cs),
(617,113,o),
(502,-10,o),
(321,-10,cs),
(187,-10,o),
(39,66,o),
(39,262,cs),
(39,381,o),
(108,471,o),
(224,432,cs),
(248,424,o),
(289,408,o),
(302,398,c),
(299,364,o),
(280,269,o),
(320,269,cs),
(366,269,o),
(358,359,o),
(336,423,c),
(430,433,l),
(446,398,o),
(455,359,o),
(454,322,cs),
(452,242,o),
(414,169,o),
(325,169,cs),
(234,169,o),
(184,249,o),
(206,372,c),
(230,343,l),
(220,349,o),
(204,359,o),
(185,359,cs),
(157,359,o),
(146,314,o),
(146,268,cs),
(146,172,o),
(223,95,o),
(326,95,cs),
(423,95,o),
(510,160,o),
(510,322,cs),
(510,471,o),
(425,540,o),
(293,540,cs)
);
},
{
closed = 1;
nodes = (
(1382,445,o),
(1399,481,o),
(1399,526,cs),
(1399,618,o),
(1338,699,o),
(1190,699,cs),
(1026,699,o),
(983,600,o),
(983,537,cs),
(983,484,o),
(997,446,o),
(1030,405,c),
(1118,435,l),
(1102,459,o),
(1085,490,o),
(1085,521,cs),
(1085,558,o),
(1108,599,o),
(1188,599,cs),
(1255,599,o),
(1297,571,o),
(1297,521,cs),
(1297,491,o),
(1280,459,o),
(1264,435,c),
(1344,386,l)
);
},
{
closed = 1;
nodes = (
(984,192,l),
(991,194,o),
(999,196,o),
(1021,196,cs),
(1058,196,o),
(1081,178,o),
(1081,154,cs),
(1081,106,o),
(1013,90,o),
(968,90,cs),
(886,90,o),
(826,121,o),
(811,170,c),
(805,223,l),
(802,243,o),
(800,270,o),
(799,305,c),
(723,300,l),
(722,285,o),
(720,270,o),
(719,245,cs),
(712,115,o),
(768,-7,o),
(968,-7,cs),
(1112,-7,o),
(1181,61,o),
(1181,157,cs),
(1181,213,o),
(1139,280,o),
(1068,280,cs),
(1041,280,o),
(1022,271,o),
(1002,265,c)
);
},
{
closed = 1;
nodes = (
(760,367,l),
(787,383,o),
(817,403,o),
(850,403,cs),
(890,403,o),
(895,375,o),
(939,296,c),
(943,276,l),
(984,192,l),
(1055,243,l),
(1016,332,l),
(1005,352,l),
(963,454,o),
(929,495,o),
(859,495,cs),
(798,495,o),
(746,455,o),
(719,436,c)
);
},
{
closed = 1;
nodes = (
(1755,434,o),
(1732,438,o),
(1709,438,cs),
(1599,438,o),
(1521,345,o),
(1521,212,cs),
(1521,58,o),
(1612,-6,o),
(1720,-6,cs),
(1833,-6,o),
(1859,75,o),
(1859,125,c),
(1826,125,l),
(1826,66,o),
(1876,-6,o),
(1981,-6,cs),
(2094,-6,o),
(2163,78,o),
(2163,182,cs),
(2163,306,o),
(2065,351,o),
(1952,351,cs),
(1928,351,o),
(1912,349,o),
(1865,343,c),
(1906,301,l),
(1895,365,o),
(1901,409,o),
(1967,409,cs),
(2004,409,o),
(2039,397,o),
(2079,378,c),
(2112,456,l),
(2050,489,o),
(2006,501,o),
(1960,501,cs),
(1816,501,o),
(1793,381,o),
(1823,259,c),
(1851,262,o),
(1882,264,o),
(1916,265,cs),
(2012,267,o),
(2054,239,o),
(2054,184,cs),
(2054,140,o),
(2026,103,o),
(1972,103,cs),
(1924,103,o),
(1887,131,o),
(1887,172,c),
(1887,207,l),
(1797,207,l),
(1797,172,l),
(1797,131,o),
(1768,103,o),
(1722,103,cs),
(1670,103,o),
(1633,136,o),
(1633,218,cs),
(1633,291,o),
(1663,337,o),
(1734,337,cs),
(1743,337,o),
(1753,337,o),
(1764,335,c),
(1779,427,l)
);
},
{
closed = 1;
nodes = (
(2508,90,l),
(2491,85,o),
(2473,80,o),
(2451,80,cs),
(2391,80,o),
(2343,106,o),
(2343,178,cs),
(2343,252,o),
(2405,300,o),
(2506,320,c),
(2505,442,l),
(2244,442,l),
(2244,350,l),
(2411,350,l),
(2362,341,l),
(2278,317,o),
(2232,238,o),
(2232,166,cs),
(2232,53,o),
(2302,-17,o),
(2430,-17,cs),
(2457,-17,o),
(2501,-9,o),
(2526,5,c)
);
},
{
closed = 1;
nodes = (
(3133,476,l),
(3245,384,l),
(3245,680,l),
(3133,680,l)
);
},
{
closed = 1;
nodes = (
(3031,-8,o),
(3089,43,o),
(3089,154,cs),
(3089,240,o),
(3035,298,o),
(2948,298,c),
(2892,298,l),
(2869,218,l),
(2932,218,l),
(2969,218,o),
(2989,192,o),
(2989,154,cs),
(2989,117,o),
(2977,96,o),
(2945,96,cs),
(2904,96,o),
(2891,130,o),
(2891,171,c),
(2812,171,l),
(2813,135,o),
(2809,96,o),
(2769,96,cs),
(2729,96,o),
(2717,127,o),
(2717,214,c),
(2630,174,l),
(2624,47,o),
(2667,-8,o),
(2764,-8,cs),
(2829,-8,o),
(2859,29,o),
(2861,72,c),
(2846,72,l),
(2847,43,o),
(2883,-8,o),
(2962,-8,cs)
);
},
{
closed = 1;
nodes = (
(2875,307,o),
(2876,308,o),
(2902,322,cs),
(2949,347,o),
(3001,390,o),
(3072,390,cs),
(3149,390,o),
(3226,341,o),
(3226,229,cs),
(3226,138,o),
(3193,77,o),
(3127,91,c),
(3127,8,l),
(3269,-24,o),
(3340,69,o),
(3340,229,cs),
(3340,399,o),
(3238,497,o),
(3089,497,cs),
(2990,497,o),
(2914,451,o),
(2838,391,c),
(2806,377,l),
(2573,201,l),
(2630,137,l),
(2665,152,l),
(2855,292,l)
);
},
{
closed = 1;
nodes = (
(2651,367,l),
(2678,383,o),
(2708,403,o),
(2741,403,cs),
(2776,403,o),
(2791,375,o),
(2819,326,c),
(2834,297,l),
(2869,218,l),
(2961,243,l),
(2912,352,l),
(2901,362,l),
(2861,460,o),
(2820,495,o),
(2754,495,cs),
(2692,495,o),
(2650,464,o),
(2610,436,c)
);
},
{
closed = 1;
nodes = (
(1431,386,o),
(1339,497,o),
(1184,497,cs),
(1084,497,o),
(1013,455,o),
(955,361,c),
(939,341,l),
(903,295,o),
(877,254,o),
(836,245,c),
(817,240,o),
(794,242,o),
(773,244,c),
(773,165,l),
(796,159,o),
(831,156,o),
(849,158,cs),
(927,167,o),
(950,238,o),
(981,279,c),
(996,292,l),
(1036,347,o),
(1092,393,o),
(1166,393,cs),
(1267,393,o),
(1317,324,o),
(1317,228,cs),
(1317,138,o),
(1284,77,o),
(1208,91,c),
(1208,8,l),
(1350,-26,o),
(1431,59,o),
(1431,227,cs)
);
}
);
};
layerId = "83741E78-F6EF-4193-9C18-D84DCFF9369B";
name = Op1;
shapes = (
{
closed = 1;
nodes = (
(598,103,o),
(598,-52,o),
(601,-207,c),
(498,-207,l),
(498,-88,o),
(495,32,o),
(495,151,c),
(598,258,l)
);
},
{
closed = 1;
nodes = (
(478,-178,o),
(441,-158,o),
(403,-158,cs),
(320,-158,o),
(302,-214,o),
(201,-214,cs),
(150,-214,o),
(91,-193,o),
(44,-135,c),
(92,-58,l),
(139,-103,o),
(172,-112,o),
(213,-112,cs),
(270,-112,o),
(310,-62,o),
(390,-62,cs),
(452,-62,o),
(497,-92,o),
(519,-129,c),
(556,-142,l),
(498,-207,l)
);
},
{
closed = 1;
nodes = (
(233,540,o),
(177,521,o),
(122,496,c),
(85,578,l),
(133,606,o),
(215,644,o),
(303,644,cs),
(522,644,o),
(617,496,o),
(617,320,cs),
(617,113,o),
(502,-10,o),
(321,-10,cs),
(187,-10,o),
(39,66,o),
(39,262,cs),
(39,381,o),
(108,471,o),
(224,432,cs),
(248,424,o),
(289,408,o),
(302,398,c),
(299,364,o),
(280,269,o),
(320,269,cs),
(366,269,o),
(358,359,o),
(336,423,c),
(430,433,l),
(446,398,o),
(455,359,o),
(454,322,cs),
(452,242,o),
(414,169,o),
(325,169,cs),
(234,169,o),
(184,249,o),
(206,372,c),
(230,343,l),
(220,349,o),
(204,359,o),
(185,359,cs),
(157,359,o),
(146,314,o),
(146,268,cs),
(146,172,o),
(223,95,o),
(326,95,cs),
(423,95,o),
(510,160,o),
(510,322,cs),
(510,471,o),
(425,540,o),
(293,540,cs)
);
},
{
closed = 1;
nodes = (
(1382,445,o),
(1399,481,o),
(1399,526,cs),
(1399,618,o),
(1338,699,o),
(1190,699,cs),
(1026,699,o),
(983,600,o),
(983,537,cs),
(983,484,o),
(997,446,o),
(1030,405,c),
(1118,435,l),
(1102,459,o),
(1085,490,o),
(1085,521,cs),
(1085,558,o),
(1108,599,o),
(1188,599,cs),
(1255,599,o),
(1297,571,o),
(1297,521,cs),
(1297,491,o),
(1280,459,o),
(1264,435,c),
(1344,386,l)
);
},
{
closed = 1;
nodes = (
(984,192,l),
(991,194,o),
(999,196,o),
(1021,196,cs),
(1058,196,o),
(1081,178,o),
(1081,154,cs),
(1081,106,o),
(1013,90,o),
(968,90,cs),
(886,90,o),
(826,121,o),
(811,170,c),
(805,223,l),
(802,243,o),
(800,270,o),
(799,305,c),
(723,300,l),
(722,285,o),
(720,270,o),
(719,245,cs),
(712,115,o),
(768,-7,o),
(968,-7,cs),
(1112,-7,o),
(1181,61,o),
(1181,157,cs),
(1181,213,o),
(1139,280,o),
(1068,280,cs),
(1041,280,o),
(1022,271,o),
(1002,265,c)
);
},
{
closed = 1;
nodes = (
(760,367,l),
(787,383,o),
(817,403,o),
(850,403,cs),
(890,403,o),
(895,375,o),
(939,296,c),
(943,276,l),
(984,192,l),
(1055,243,l),
(1016,332,l),
(1005,352,l),
(963,454,o),
(929,495,o),
(859,495,cs),
(798,495,o),
(746,455,o),
(719,436,c)
);
},
{
closed = 1;
nodes = (
(1755,434,o),
(1732,438,o),
(1709,438,cs),
(1599,438,o),
(1521,345,o),
(1521,212,cs),
(1521,58,o),
(1612,-6,o),
(1720,-6,cs),
(1833,-6,o),
(1859,75,o),
(1859,125,c),
(1826,125,l),
(1826,66,o),
(1876,-6,o),
(1981,-6,cs),
(2094,-6,o),
(2163,78,o),
(2163,182,cs),
(2163,306,o),
(2065,351,o),
(1952,351,cs),
(1928,351,o),
(1912,349,o),
(1865,343,c),
(1906,301,l),
(1895,365,o),
(1901,409,o),
(1967,409,cs),
(2004,409,o),
(2039,397,o),
(2079,378,c),
(2112,456,l),
(2050,489,o),
(2006,501,o),
(1960,501,cs),
(1816,501,o),
(1793,381,o),
(1823,259,c),
(1851,262,o),
(1882,264,o),
(1916,265,cs),
(2012,267,o),
(2054,239,o),
(2054,184,cs),
(2054,140,o),
(2026,103,o),
(1972,103,cs),
(1924,103,o),
(1887,131,o),
(1887,172,c),
(1887,207,l),
(1797,207,l),
(1797,172,l),
(1797,131,o),
(1768,103,o),
(1722,103,cs),
(1670,103,o),
(1633,136,o),
(1633,218,cs),
(1633,291,o),
(1663,337,o),
(1734,337,cs),
(1743,337,o),
(1753,337,o),
(1764,335,c),
(1779,427,l)
);
},
{
closed = 1;
nodes = (
(2508,90,l),
(2491,85,o),
(2473,80,o),
(2451,80,cs),
(2391,80,o),
(2343,106,o),
(2343,178,cs),
(2343,252,o),
(2405,300,o),
(2506,320,c),
(2505,442,l),
(2244,442,l),
(2244,350,l),
(2411,350,l),
(2362,341,l),
(2278,317,o),
(2232,238,o),
(2232,166,cs),
(2232,53,o),
(2302,-17,o),
(2430,-17,cs),
(2457,-17,o),
(2501,-9,o),
(2526,5,c)
);
},
{
closed = 1;
nodes = (
(3133,476,l),
(3245,384,l),
(3245,680,l),
(3133,680,l)
);
},
{
closed = 1;
nodes = (
(3031,-8,o),
(3089,43,o),
(3089,154,cs),
(3089,240,o),
(3035,298,o),
(2948,298,c),
(2892,298,l),
(2869,218,l),
(2932,218,l),
(2969,218,o),
(2989,192,o),
(2989,154,cs),
(2989,117,o),
(2977,96,o),
(2945,96,cs),
(2904,96,o),
(2891,130,o),
(2891,171,c),
(2812,171,l),
(2813,135,o),
(2809,96,o),
(2769,96,cs),
(2729,96,o),
(2717,127,o),
(2717,214,c),
(2630,174,l),
(2624,47,o),
(2667,-8,o),
(2764,-8,cs),
(2829,-8,o),
(2859,29,o),
(2861,72,c),
(2846,72,l),
(2847,43,o),
(2883,-8,o),
(2962,-8,cs)
);
},
{
closed = 1;
nodes = (
(2875,307,o),
(2876,308,o),
(2902,322,cs),
(2949,347,o),
(3001,390,o),
(3072,390,cs),
(3149,390,o),
(3226,341,o),
(3226,229,cs),
(3226,138,o),
(3193,77,o),
(3127,91,c),
(3127,8,l),
(3269,-24,o),
(3340,69,o),
(3340,229,cs),
(3340,399,o),
(3238,497,o),
(3089,497,cs),
(2990,497,o),
(2914,451,o),
(2838,391,c),
(2806,377,l),
(2573,201,l),
(2630,137,l),
(2665,152,l),
(2855,292,l)
);
},
{
closed = 1;
nodes = (
(2651,367,l),
(2678,383,o),
(2708,403,o),
(2741,403,cs),
(2776,403,o),
(2791,375,o),
(2819,326,c),
(2834,297,l),
(2869,218,l),
(2961,243,l),
(2912,352,l),
(2901,362,l),
(2861,460,o),
(2820,495,o),
(2754,495,cs),
(2692,495,o),
(2650,464,o),
(2610,436,c)
);
},
{
closed = 1;
nodes = (
(1431,386,o),
(1339,497,o),
(1184,497,cs),
(1084,497,o),
(1013,455,o),
(955,361,c),
(939,341,l),
(903,295,o),
(877,254,o),
(836,245,c),
(817,240,o),
(794,242,o),
(773,244,c),
(773,165,l),
(796,159,o),
(831,156,o),
(849,158,cs),
(927,167,o),
(950,238,o),
(981,279,c),
(996,292,l),
(1036,347,o),
(1092,393,o),
(1166,393,cs),
(1267,393,o),
(1317,324,o),
(1317,228,cs),
(1317,138,o),
(1284,77,o),
(1208,91,c),
(1208,8,l),
(1350,-26,o),
(1431,59,o),
(1431,227,cs)
);
}
);
width = 3430;
},
{
associatedMasterId = m01;
background = {
shapes = (
{
closed = 1;
nodes = (
(598,103,o),
(598,-52,o),
(601,-207,c),
(498,-207,l),
(498,-88,o),
(495,32,o),
(495,151,c),
(598,258,l)
);
},
{
closed = 1;
nodes = (
(478,-178,o),
(441,-158,o),
(403,-158,cs),
(320,-158,o),
(302,-214,o),
(201,-214,cs),
(150,-214,o),
(91,-193,o),
(44,-135,c),
(92,-58,l),
(139,-103,o),
(172,-112,o),
(213,-112,cs),
(270,-112,o),
(310,-62,o),
(390,-62,cs),
(452,-62,o),
(497,-92,o),
(519,-129,c),
(556,-142,l),
(498,-207,l)
);
},
{
closed = 1;
nodes = (
(233,540,o),
(177,521,o),
(122,496,c),
(85,578,l),
(133,606,o),
(215,644,o),
(303,644,cs),
(522,644,o),
(617,496,o),
(617,320,cs),
(617,113,o),
(502,-10,o),
(321,-10,cs),
(187,-10,o),
(39,66,o),
(39,262,cs),
(39,381,o),
(108,471,o),
(224,432,cs),
(248,424,o),
(289,408,o),
(302,398,c),
(299,364,o),
(280,269,o),
(320,269,cs),
(366,269,o),
(358,359,o),
(336,423,c),
(430,433,l),
(446,398,o),
(455,359,o),
(454,322,cs),
(452,242,o),
(414,169,o),
(325,169,cs),
(234,169,o),
(184,249,o),
(206,372,c),
(230,343,l),
(220,349,o),
(204,359,o),
(185,359,cs),
(157,359,o),
(146,314,o),
(146,268,cs),
(146,172,o),
(223,95,o),
(326,95,cs),
(423,95,o),
(510,160,o),
(510,322,cs),
(510,471,o),
(425,540,o),
(293,540,cs)
);
},
{
closed = 1;
nodes = (
(1382,445,o),
(1399,481,o),
(1399,526,cs),
(1399,618,o),
(1338,699,o),
(1190,699,cs),
(1026,699,o),
(983,600,o),
(983,537,cs),
(983,484,o),
(997,446,o),
(1030,405,c),
(1118,435,l),
(1102,459,o),
(1085,490,o),
(1085,521,cs),
(1085,558,o),
(1108,599,o),
(1188,599,cs),
(1255,599,o),
(1297,571,o),
(1297,521,cs),
(1297,491,o),
(1280,459,o),
(1264,435,c),
(1344,386,l)
);
},
{
closed = 1;
nodes = (
(984,192,l),
(991,194,o),
(999,196,o),
(1021,196,cs),
(1058,196,o),
(1081,178,o),
(1081,154,cs),
(1081,106,o),
(1013,90,o),
(968,90,cs),
(886,90,o),
(826,121,o),
(811,170,c),
(805,223,l),
(802,243,o),
(800,270,o),
(799,305,c),
(723,300,l),
(722,285,o),
(720,270,o),
(719,245,cs),
(712,115,o),
(768,-7,o),
(968,-7,cs),
(1112,-7,o),
(1181,61,o),
(1181,157,cs),
(1181,213,o),
(1139,280,o),
(1068,280,cs),
(1041,280,o),
(1022,271,o),
(1002,265,c)
);
},
{
closed = 1;
nodes = (
(760,367,l),
(787,383,o),
(817,403,o),
(850,403,cs),
(890,403,o),
(895,375,o),
(939,296,c),
(943,276,l),
(984,192,l),
(1055,243,l),
(1016,332,l),
(1005,352,l),
(963,454,o),
(929,495,o),
(859,495,cs),
(798,495,o),
(746,455,o),
(719,436,c)
);
},
{
closed = 1;
nodes = (
(1755,434,o),
(1732,438,o),
(1709,438,cs),
(1599,438,o),
(1521,345,o),
(1521,212,cs),
(1521,58,o),
(1612,-6,o),
(1720,-6,cs),
(1833,-6,o),
(1859,75,o),
(1859,125,c),
(1826,125,l),
(1826,66,o),
(1876,-6,o),
(1981,-6,cs),
(2094,-6,o),
(2163,78,o),
(2163,182,cs),
(2163,306,o),
(2065,351,o),
(1952,351,cs),
(1928,351,o),
(1912,349,o),
(1865,343,c),
(1906,301,l),
(1895,365,o),
(1901,409,o),
(1967,409,cs),
(2004,409,o),
(2039,397,o),
(2079,378,c),
(2112,456,l),
(2050,489,o),
(2006,501,o),
(1960,501,cs),
(1816,501,o),
(1793,381,o),
(1823,259,c),
(1851,262,o),
(1882,264,o),
(1916,265,cs),
(2012,267,o),
(2054,239,o),
(2054,184,cs),
(2054,140,o),
(2026,103,o),
(1972,103,cs),
(1924,103,o),
(1887,131,o),
(1887,172,c),
(1887,207,l),
(1797,207,l),
(1797,172,l),
(1797,131,o),
(1768,103,o),
(1722,103,cs),
(1670,103,o),
(1633,136,o),
(1633,218,cs),
(1633,291,o),
(1663,337,o),
(1734,337,cs),
(1743,337,o),
(1753,337,o),
(1764,335,c),
(1779,427,l)
);
},
{
closed = 1;
nodes = (
(2508,90,l),
(2491,85,o),
(2473,80,o),
(2451,80,cs),
(2391,80,o),
(2343,106,o),
(2343,178,cs),
(2343,252,o),
(2405,300,o),
(2506,320,c),
(2505,442,l),
(2244,442,l),
(2244,350,l),
(2411,350,l),
(2362,341,l),
(2278,317,o),
(2232,238,o),
(2232,166,cs),
(2232,53,o),
(2302,-17,o),
(2430,-17,cs),
(2457,-17,o),
(2501,-9,o),
(2526,5,c)
);
},
{
closed = 1;
nodes = (
(3133,476,l),
(3245,384,l),
(3245,680,l),
(3133,680,l)
);
},
{
closed = 1;
nodes = (
(3031,-8,o),
(3089,43,o),
(3089,154,cs),
(3089,240,o),
(3035,298,o),
(2948,298,c),
(2892,298,l),
(2869,218,l),
(2932,218,l),
(2969,218,o),
(2989,192,o),
(2989,154,cs),
(2989,117,o),
(2977,96,o),
(2945,96,cs),
(2904,96,o),
(2891,130,o),
(2891,171,c),
(2812,171,l),
(2813,135,o),
(2809,96,o),
(2769,96,cs),
(2729,96,o),
(2717,127,o),
(2717,214,c),
(2630,174,l),
(2624,47,o),
(2667,-8,o),
(2764,-8,cs),
(2829,-8,o),
(2859,29,o),
(2861,72,c),
(2846,72,l),
(2847,43,o),
(2883,-8,o),
(2962,-8,cs)
);
},
{
closed = 1;
nodes = (
(2875,307,o),
(2876,308,o),
(2902,322,cs),
(2949,347,o),
(3001,390,o),
(3072,390,cs),
(3149,390,o),
(3226,341,o),
(3226,229,cs),
(3226,138,o),
(3193,77,o),
(3127,91,c),
(3127,8,l),
(3269,-24,o),
(3340,69,o),
(3340,229,cs),
(3340,399,o),
(3238,497,o),
(3089,497,cs),
(2990,497,o),
(2914,451,o),
(2838,391,c),
(2806,377,l),
(2573,201,l),
(2630,137,l),
(2665,152,l),
(2855,292,l)
);
},
{
closed = 1;
nodes = (
(2651,367,l),
(2678,383,o),
(2708,403,o),
(2741,403,cs),
(2776,403,o),
(2791,375,o),
(2819,326,c),
(2834,297,l),
(2869,218,l),
(2961,243,l),
(2912,352,l),
(2901,362,l),
(2861,460,o),
(2820,495,o),
(2754,495,cs),
(2692,495,o),
(2650,464,o),
(2610,436,c)
);
},
{
closed = 1;
nodes = (
(1431,386,o),
(1339,497,o),
(1184,497,cs),
(1084,497,o),
(1013,455,o),
(955,361,c),
(939,341,l),
(903,295,o),
(877,254,o),
(836,245,c),
(817,240,o),
(794,242,o),
(773,244,c),
(773,165,l),
(796,159,o),
(831,156,o),
(849,158,cs),
(927,167,o),
(950,238,o),
(981,279,c),
(996,292,l),
(1036,347,o),
(1092,393,o),
(1166,393,cs),
(1267,393,o),
(1317,324,o),
(1317,228,cs),
(1317,138,o),
(1284,77,o),
(1208,91,c),
(1208,8,l),
(1350,-26,o),
(1431,59,o),
(1431,227,cs)
);
}
);
};
layerId = "44743837-1624-47C0-A0D4-806B8D57AE02";
name = Op2;
shapes = (
{
closed = 1;
nodes = (
(616,-206,l),
(519,-207,l),
(517,-15,l),
(536,151,l),
(616,318,l)
);
},
{
closed = 1;
nodes = (
(499,-178,o),
(460,-158,o),
(412,-158,cs),
(339,-158,o),
(317,-214,o),
(223,-214,cs),
(155,-214,o),
(103,-176,o),
(65,-108,c),
(141,-44,l),
(173,-88,o),
(193,-112,o),
(234,-112,cs),
(294,-112,o),
(335,-55,o),
(415,-55,cs),
(471,-55,o),
(518,-92,o),
(540,-129,c),
(577,-142,l),
(519,-207,l)
);
},
{
closed = 1;
nodes = (
(233,540,o),
(177,521,o),
(122,496,c),
(85,578,l),
(133,606,o),
(215,644,o),
(303,644,cs),
(522,644,o),
(617,496,o),
(617,320,cs),
(617,113,o),
(502,-10,o),
(321,-10,cs),
(187,-10,o),
(39,66,o),
(39,262,cs),
(39,381,o),
(108,471,o),
(224,432,cs),
(248,424,o),
(289,408,o),
(302,398,c),
(299,364,o),
(280,269,o),
(320,269,cs),
(366,269,o),
(358,359,o),
(336,423,c),
(430,433,l),
(446,398,o),
(455,359,o),
(454,322,cs),
(452,242,o),
(414,169,o),
(325,169,cs),
(234,169,o),
(184,249,o),
(206,372,c),
(230,343,l),
(220,349,o),
(204,359,o),
(185,359,cs),
(157,359,o),
(146,314,o),
(146,268,cs),
(146,172,o),
(223,102,o),
(326,102,cs),
(423,102,o),
(510,160,o),
(510,322,cs),
(510,471,o),
(425,540,o),
(293,540,cs)
);
},
{
closed = 1;
nodes = (
(1367,445,o),
(1384,481,o),
(1384,526,cs),
(1384,618,o),
(1323,699,o),
(1175,699,cs),
(1011,699,o),
(968,600,o),
(968,537,cs),
(968,484,o),
(982,446,o),
(1015,405,c),
(1103,435,l),
(1087,459,o),
(1070,490,o),
(1070,521,cs),
(1070,568,o),
(1093,609,o),
(1173,609,cs),
(1240,609,o),
(1282,581,o),
(1282,521,cs),
(1282,491,o),
(1265,459,o),
(1249,435,c),
(1329,386,l)
);
},
{
closed = 1;
nodes = (
(941,271,l),
(948,273,o),
(956,275,o),
(978,275,cs),
(1057,275,o),
(1076,228,o),
(1076,194,cs),
(1076,146,o),
(1028,90,o),
(943,90,cs),
(871,90,o),
(811,121,o),
(796,170,c),
(790,223,l),
(787,243,o),
(785,270,o),
(784,305,c),
(708,300,l),
(707,285,o),
(705,270,o),
(704,245,cs),
(697,115,o),
(753,-7,o),
(953,-7,cs),
(1097,-7,o),
(1166,101,o),
(1166,194,cs),
(1166,253,o),
(1126,339,o),
(1015,339,cs),
(988,339,o),
(969,330,o),
(949,324,c)
);
},
{
closed = 1;
nodes = (
(745,358,l),
(772,374,o),
(802,394,o),
(835,394,cs),
(875,394,o),
(896,386,o),
(940,307,c),
(990,353,l),
(948,455,o),
(914,496,o),
(844,496,cs),
(783,496,o),
(731,456,o),
(704,437,c)
);
},
{
closed = 1;
nodes = (
(3041,476,l),
(3153,384,l),
(3153,670,l),
(3041,664,l)
);
},
{
closed = 1;
nodes = (
(2939,-8,o),
(2997,53,o),
(2997,174,cs),
(2997,250,o),
(2943,358,o),
(2796,358,c),
(2740,358,l),
(2717,288,l),
(2760,288,l),
(2877,288,o),
(2897,222,o),
(2897,174,cs),
(2897,127,o),
(2885,96,o),
(2853,96,cs),
(2812,96,o),
(2799,130,o),
(2799,171,c),
(2720,171,l),
(2721,135,o),
(2717,96,o),
(2674,96,cs),
(2637,96,o),
(2615,117,o),
(2615,194,c),
(2538,164,l),
(2532,57,o),
(2575,-8,o),
(2669,-8,cs),
(2731,-8,o),
(2755,39,o),
(2769,72,c),
(2754,72,l),
(2761,49,o),
(2791,-8,o),
(2870,-8,cs)
);
},
{
closed = 1;
nodes = (
(2783,307,o),
(2784,308,o),
(2810,322,cs),
(2857,347,o),
(2909,390,o),
(2980,390,cs),
(3057,390,o),
(3134,341,o),
(3134,229,cs),
(3134,138,o),
(3101,77,o),
(3035,91,c),
(3035,8,l),
(3177,-24,o),
(3248,69,o),
(3248,229,cs),
(3248,399,o),
(3146,497,o),
(2997,497,cs),
(2898,497,o),
(2822,451,o),
(2746,391,c),
(2714,377,l),
(2481,201,l),
(2538,137,l),
(2573,152,l),
(2763,292,l)
);
},
{
closed = 1;
nodes = (
(1416,386,o),
(1324,497,o),
(1169,497,cs),
(1069,497,o),
(998,455,o),
(940,361,c),
(924,341,l),
(888,295,o),
(862,254,o),
(821,245,c),
(802,240,o),
(779,242,o),
(758,244,c),
(758,165,l),
(781,159,o),
(816,156,o),
(834,158,cs),
(912,167,o),
(945,238,o),
(976,279,c),
(981,292,l),
(1021,347,o),
(1077,393,o),
(1151,393,cs),
(1252,393,o),
(1312,324,o),
(1312,228,cs),
(1312,138,o),
(1269,77,o),
(1193,91,c),
(1193,8,l),
(1335,-26,o),
(1416,59,o),
(1416,227,cs)
);
},
{
closed = 1;
nodes = (
(1722,434,o),
(1699,438,o),
(1676,438,cs),
(1566,438,o),
(1468,345,o),
(1468,212,cs),
(1468,58,o),
(1569,-6,o),
(1677,-6,cs),
(1790,-6,o),
(1816,75,o),
(1826,125,c),
(1793,125,l),
(1803,76,o),
(1843,-6,o),
(1948,-6,cs),
(2061,-6,o),
(2130,78,o),
(2130,182,cs),
(2130,306,o),
(2032,351,o),
(1919,351,cs),
(1895,351,o),
(1879,349,o),
(1832,343,c),
(1878,301,l),
(1894,356,l),
(1905,402,o),
(1934,416,o),
(1974,409,cs),
(2011,402,o),
(2026,397,o),
(2066,378,c),
(2099,456,l),
(2037,489,o),
(1993,501,o),
(1947,501,cs),
(1844,501,o),
(1809,438,o),
(1790,359,c),
(1770,259,l),
(1798,259,o),
(1849,259,o),
(1893,259,cs),
(1969,259,o),
(2021,234,o),
(2021,181,cs),
(2021,138,o),
(1993,103,o),
(1942,103,cs),
(1891,103,o),
(1854,131,o),
(1854,182,cs),
(1854,207,l),
(1764,207,l),
(1764,182,ls),
(1764,131,o),
(1735,103,o),
(1689,103,cs),
(1637,103,o),
(1575,136,o),
(1575,218,cs),
(1575,291,o),
(1630,337,o),
(1691,337,cs),
(1710,337,o),
(1720,337,o),
(1731,335,c),
(1746,427,l)
);
},
{
closed = 1;
nodes = (
(2460,85,l),
(2443,80,o),
(2420,75,o),
(2398,75,cs),
(2338,75,o),
(2300,121,o),
(2300,183,cs),
(2300,267,o),
(2352,320,o),
(2403,340,c),
(2402,432,l),
(2171,432,l),
(2171,345,l),
(2348,345,l),
(2335,362,l),
(2220,312,o),
(2189,238,o),
(2189,158,cs),
(2189,43,o),
(2270,-17,o),
(2371,-17,cs),
(2408,-17,o),
(2444,-9,o),
(2479,5,c)
);
},
{
closed = 1;
nodes = (
(2535,360,l),
(2562,376,o),
(2592,396,o),
(2625,396,cs),
(2665,396,o),
(2686,388,o),
(2730,309,c),
(2780,355,l),
(2738,457,o),
(2704,498,o),
(2634,498,cs),
(2573,498,o),
(2521,458,o),
(2494,439,c)
);
}
);
width = 3379;
}
);
},
{
glyphname = mooniak.taml;
lastChange = "2025-11-09 21:34:43 +0000";
layers = (
{
background = {
shapes = (
{
closed = 1;
nodes = (
(637,-243,o),
(802,-150,o),
(805,55,c),
(696,55,l),
(696,-76,o),
(578,-138,o),
(455,-138,cs),
(242,-138,o),
(154,15,o),
(154,158,cs),
(154,261,o),
(181,399,o),
(265,399,cs),
(293,399,o),
(314,379,o),
(314,354,cs),
(314,318,o),
(286,309,o),
(259,309,cs),
(227,309,o),
(175,330,o),
(165,365,c),
(141,284,l),
(150,234,o),
(209,205,o),
(271,205,cs),
(379,205,o),
(423,290,o),
(423,360,cs),
(423,430,o),
(377,504,o),
(278,504,cs),
(147,504,o),
(52,379,o),
(52,158,cs),
(52,-31,o),
(170,-243,o),
(453,-243,cs)
);
},
{
closed = 1;
nodes = (
(828,19,l),
(833,120,l),
(576,120,l),
(573,240,o),
(573,360,o),
(576,480,c),
(456,475,l),
(458,323,o),
(458,171,o),
(456,19,c)
);
},
{
closed = 1;
nodes = (
(968,19,o),
(1038,101,o),
(1038,236,cs),
(1038,367,o),
(965,492,o),
(815,490,cs),
(740,489,o),
(693,445,o),
(693,373,cs),
(693,81,l),
(802,81,l),
(802,347,ls),
(802,369,o),
(810,388,o),
(842,388,cs),
(889,388,o),
(930,322,o),
(930,244,cs),
(930,184,o),
(916,119,o),
(826,120,c),
(824,19,l)
);
},
{
closed = 1;
nodes = (
(1236,-234,l),
(1237,-192,o),
(1271,-162,o),
(1332,-162,cs),
(1458,-161,ls),
(1640,-160,o),
(1735,-29,o),
(1735,122,cs),
(1735,257,o),
(1669,329,o),
(1578,330,cs),
(1477,331,o),
(1439,249,o),
(1437,216,c),
(1497,177,l),
(1497,211,o),
(1521,234,o),
(1547,234,cs),
(1607,234,o),
(1618,181,o),
(1617,127,cs),
(1615,-7,o),
(1544,-60,o),
(1414,-60,cs),
(1308,-60,ls),
(1180,-60,o),
(1117,-130,o),
(1116,-218,c)
);
},
{
closed = 1;
nodes = (
(1260,0,l),
(1257,128,o),
(1257,257,o),
(1260,385,c),
(1391,385,l),
(1391,0,l),
(1498,0,l),
(1498,385,l),
(1589,385,l),
(1593,486,l),
(1142,486,l),
(1144,324,o),
(1144,162,o),
(1142,0,c)
);
},
{
closed = 1;
nodes = (
(1898,0,l),
(1902,149,o),
(1898,297,o),
(1897,416,cs),
(1895,604,o),
(1775,703,o),
(1615,702,cs),
(1495,701,o),
(1390,624,o),
(1390,506,cs),
(1390,442,o),
(1431,397,o),
(1477,397,c),
(1523,440,l),
(1507,440,o),
(1483,462,o),
(1483,485,cs),
(1483,540,o),
(1525,589,o),
(1617,589,cs),
(1739,589,o),
(1788,505,o),
(1793,383,cs),
(1798,255,o),
(1799,128,o),
(1794,0,c)
);
},
{
closed = 1;
nodes = (
(2305,51,o),
(2257,-17,o),
(2147,-17,cs),
(2078,-17,o),
(2014,29,o),
(2014,111,cs),
(2014,474,l),
(2133,478,l),
(2133,164,ls),
(2133,108,o),
(2162,82,o),
(2195,82,cs),
(2234,82,o),
(2278,110,o),
(2278,163,c),
(2330,136,l)
);
},
{
closed = 1;
nodes = (
(2298,-1,l),
(2308,97,l),
(2272,75,l),
(2275,208,o),
(2275,342,o),
(2272,475,c),
(2386,478,l),
(2383,350,o),
(2383,221,o),
(2386,93,c),
(2537,93,l),
(2540,220,o),
(2540,347,o),
(2537,474,c),
(2656,478,l),
(2652,294,o),
(2653,159,o),
(2656,-1,c)
);
},
{
closed = 1;
nodes = (
(2736,261,o),
(2797,314,o),
(2896,314,cs),
(3210,314,ls),
(3268,314,o),
(3362,285,o),
(3362,162,cs),
(3362,26,o),
(3264,-11,o),
(3182,-11,cs),
(3161,-11,l),
(3144,67,l),
(3215,79,o),
(3259,106,o),
(3259,157,cs),
(3259,199,o),
(3224,219,o),
(3183,219,cs),
(2889,221,ls),
(2850,221,o),
(2826,196,o),
(2826,162,cs),
(2826,111,o),
(2871,83,o),
(2932,83,cs),
(2987,83,o),
(3041,119,o),
(3041,196,cs),
(3041,262,l),
(3044,274,l),
(3044,386,l),
(2942,386,l),
(2942,282,l),
(2853,282,l),
(2853,481,l),
(3244,481,l),
(3242,386,l),
(3151,386,l),
(3151,189,ls),
(3151,82,o),
(3091,-13,o),
(2938,-13,cs),
(2798,-13,o),
(2736,82,o),
(2736,160,cs)
);
},
{
closed = 1;
nodes = (
(3119,550,o),
(3151,583,o),
(3151,624,cs),
(3151,666,o),
(3119,700,o),
(3077,700,cs),
(3035,700,o),
(3003,666,o),
(3003,624,cs),
(3003,583,o),
(3035,550,o),
(3077,550,cs)
);
}
);
};
layerId = m01;
shapes = (
{
ref = "ma_uuMatra-tamil";
},
{
pos = (1074,0);
ref = "na_iMatra-tamil";
},
{
pos = (2001,0);
ref = "ya-tamil";
},
{
pos = (2787,0);
ref = "ka-tamil";
},
{
pos = (3078,0);
ref = "pulli-tamil";
}
);
width = 3509;
},
{
associatedMasterId = m01;
background = {
shapes = (
{
closed = 1;
nodes = (
(607,-243,o),
(772,-150,o),
(775,55,c),
(666,55,l),
(666,-76,o),
(548,-138,o),
(425,-138,cs),
(212,-138,o),
(124,15,o),
(124,158,cs),
(124,261,o),
(151,399,o),
(235,399,cs),
(263,399,o),
(284,379,o),
(284,354,cs),
(284,318,o),
(256,309,o),
(229,309,cs),
(197,309,o),
(145,330,o),
(135,365,c),
(111,284,l),
(120,234,o),
(179,205,o),
(241,205,cs),
(349,205,o),
(393,290,o),
(393,360,cs),
(393,430,o),
(347,504,o),
(248,504,cs),
(117,504,o),
(22,379,o),
(22,158,cs),
(22,-31,o),
(140,-243,o),
(423,-243,cs)
);
},
{
closed = 1;
nodes = (
(798,19,l),
(803,120,l),
(546,120,l),
(543,240,o),
(543,360,o),
(546,480,c),
(426,475,l),
(428,323,o),
(428,171,o),
(426,19,c)
);
},
{
closed = 1;
nodes = (
(938,19,o),
(1008,101,o),
(1008,236,cs),
(1008,367,o),
(935,492,o),
(785,490,cs),
(710,489,o),
(663,445,o),
(663,373,cs),
(663,81,l),
(772,81,l),
(772,347,ls),
(772,369,o),
(780,388,o),
(812,388,cs),
(859,388,o),
(900,322,o),
(900,244,cs),
(900,184,o),
(886,119,o),
(796,120,c),
(794,19,l)
);
},
{
closed = 1;
nodes = (
(1206,-234,l),
(1207,-192,o),
(1241,-162,o),
(1302,-162,cs),
(1428,-161,ls),
(1610,-160,o),
(1705,-29,o),
(1705,122,cs),
(1705,257,o),
(1639,329,o),
(1548,330,cs),
(1447,331,o),
(1409,249,o),
(1407,216,c),
(1467,177,l),
(1467,211,o),
(1491,234,o),
(1517,234,cs),
(1577,234,o),
(1588,181,o),
(1587,127,cs),
(1585,-7,o),
(1514,-60,o),
(1384,-60,cs),
(1278,-60,ls),
(1150,-60,o),
(1087,-130,o),
(1086,-218,c)
);
},
{
closed = 1;
nodes = (
(1230,0,l),
(1227,128,o),
(1227,257,o),
(1230,385,c),
(1361,385,l),
(1361,0,l),
(1468,0,l),
(1468,385,l),
(1559,385,l),
(1563,486,l),
(1112,486,l),
(1114,324,o),
(1114,162,o),
(1112,0,c)
);
},
{
closed = 1;
nodes = (
(1868,0,l),
(1872,149,o),
(1868,297,o),
(1867,416,cs),
(1865,604,o),
(1745,703,o),
(1585,702,cs),
(1465,701,o),
(1360,624,o),
(1360,506,cs),
(1360,442,o),
(1401,397,o),
(1447,397,c),
(1493,440,l),
(1477,440,o),
(1453,462,o),
(1453,485,cs),
(1453,540,o),
(1495,589,o),
(1587,589,cs),
(1709,589,o),
(1758,505,o),
(1763,383,cs),
(1768,255,o),
(1769,128,o),
(1764,0,c)
);
},
{
closed = 1;
nodes = (
(2275,51,o),
(2227,-17,o),
(2117,-17,cs),
(2048,-17,o),
(1984,29,o),
(1984,111,cs),
(1984,474,l),
(2103,478,l),
(2103,164,ls),
(2103,108,o),
(2132,82,o),
(2165,82,cs),
(2204,82,o),
(2248,110,o),
(2248,163,c),
(2300,136,l)
);
},
{
closed = 1;
nodes = (
(2268,-1,l),
(2278,97,l),
(2242,75,l),
(2245,208,o),
(2245,342,o),
(2242,475,c),
(2356,478,l),
(2353,350,o),
(2353,221,o),
(2356,93,c),
(2507,93,l),
(2510,220,o),
(2510,347,o),
(2507,474,c),
(2626,478,l),
(2622,294,o),
(2623,159,o),
(2626,-1,c)
);
},
{
closed = 1;
nodes = (
(2706,261,o),
(2767,314,o),
(2866,314,cs),
(3180,314,ls),
(3238,314,o),
(3332,285,o),
(3332,162,cs),
(3332,26,o),
(3234,-11,o),
(3152,-11,cs),
(3131,-11,l),
(3114,67,l),
(3185,79,o),
(3229,106,o),
(3229,157,cs),
(3229,199,o),
(3194,219,o),
(3153,219,cs),
(2859,221,ls),
(2820,221,o),
(2796,196,o),
(2796,162,cs),
(2796,111,o),
(2841,83,o),
(2902,83,cs),
(2957,83,o),
(3011,119,o),
(3011,196,cs),
(3011,262,l),
(3014,274,l),
(3014,386,l),
(2912,386,l),
(2912,282,l),
(2823,282,l),
(2823,481,l),
(3214,481,l),
(3212,386,l),
(3121,386,l),
(3121,189,ls),
(3121,82,o),
(3061,-13,o),
(2908,-13,cs),
(2768,-13,o),
(2706,82,o),
(2706,160,cs)
);
},
{
closed = 1;
nodes = (
(3089,550,o),
(3121,583,o),
(3121,624,cs),
(3121,666,o),
(3089,700,o),
(3047,700,cs),
(3005,700,o),
(2973,666,o),
(2973,624,cs),
(2973,583,o),
(3005,550,o),
(3047,550,cs)
);
}
);
};
layerId = "5D73FCB2-0392-43C7-A51E-7BE09EF47C6C";
name = "10 Nov 25 at 02:24";
shapes = (
{
closed = 1;
nodes = (
(607,-243,o),
(772,-150,o),
(775,55,c),
(666,55,l),
(666,-76,o),
(548,-138,o),
(425,-138,cs),
(212,-138,o),
(124,15,o),
(124,158,cs),
(124,261,o),
(151,399,o),
(235,399,cs),
(263,399,o),
(284,379,o),
(284,354,cs),
(284,318,o),
(256,309,o),
(229,309,cs),
(197,309,o),
(145,330,o),
(135,365,c),
(111,284,l),
(120,234,o),
(179,205,o),
(241,205,cs),
(349,205,o),
(393,290,o),
(393,360,cs),
(393,430,o),
(347,504,o),
(248,504,cs),
(117,504,o),
(22,379,o),
(22,158,cs),
(22,-31,o),
(140,-243,o),
(423,-243,cs)
);
},
{
closed = 1;
nodes = (
(798,19,l),
(803,120,l),
(546,120,l),
(543,240,o),
(543,360,o),
(546,480,c),
(426,475,l),
(428,323,o),
(428,171,o),
(426,19,c)
);
},
{
closed = 1;
nodes = (
(938,19,o),
(1008,101,o),
(1008,236,cs),
(1008,367,o),
(935,492,o),
(785,490,cs),
(710,489,o),
(663,445,o),
(663,373,cs),
(663,81,l),
(772,81,l),
(772,347,ls),
(772,369,o),
(780,388,o),
(812,388,cs),
(859,388,o),
(900,322,o),
(900,244,cs),
(900,184,o),
(886,119,o),
(796,120,c),
(794,19,l)
);
},
{
closed = 1;
nodes = (
(1206,-234,l),
(1207,-192,o),
(1241,-162,o),
(1302,-162,cs),
(1428,-161,ls),
(1610,-160,o),
(1705,-29,o),
(1705,122,cs),
(1705,257,o),
(1639,329,o),
(1548,330,cs),
(1447,331,o),
(1409,249,o),
(1407,216,c),
(1467,177,l),
(1467,211,o),
(1491,234,o),
(1517,234,cs),
(1577,234,o),
(1588,181,o),
(1587,127,cs),
(1585,-7,o),
(1514,-60,o),
(1384,-60,cs),
(1278,-60,ls),
(1150,-60,o),
(1087,-130,o),
(1086,-218,c)
);
},
{
closed = 1;
nodes = (
(1230,0,l),
(1227,128,o),
(1227,257,o),
(1230,385,c),
(1361,385,l),
(1361,0,l),
(1468,0,l),
(1468,385,l),
(1559,385,l),
(1563,486,l),
(1112,486,l),
(1114,324,o),
(1114,162,o),
(1112,0,c)
);
},
{
closed = 1;
nodes = (
(1868,0,l),
(1872,149,o),
(1868,297,o),
(1867,416,cs),
(1865,604,o),
(1745,703,o),
(1585,702,cs),
(1465,701,o),
(1360,624,o),
(1360,506,cs),
(1360,442,o),
(1401,397,o),
(1447,397,c),
(1493,440,l),
(1477,440,o),
(1453,462,o),
(1453,485,cs),
(1453,540,o),
(1495,589,o),
(1587,589,cs),
(1709,589,o),
(1758,505,o),
(1763,383,cs),
(1768,255,o),
(1769,128,o),
(1764,0,c)
);
},
{
closed = 1;
nodes = (
(2275,51,o),
(2227,-17,o),
(2117,-17,cs),
(2048,-17,o),
(1984,29,o),
(1984,111,cs),
(1984,474,l),
(2103,478,l),
(2103,164,ls),
(2103,108,o),
(2132,82,o),
(2165,82,cs),
(2204,82,o),
(2248,110,o),
(2248,163,c),
(2300,136,l)
);
},
{
closed = 1;
nodes = (
(2268,-1,l),
(2278,97,l),
(2242,75,l),
(2245,208,o),
(2245,342,o),
(2242,475,c),
(2356,478,l),
(2353,350,o),
(2353,221,o),
(2356,93,c),
(2507,93,l),
(2510,220,o),
(2510,347,o),
(2507,474,c),
(2626,478,l),
(2622,294,o),
(2623,159,o),
(2626,-1,c)
);
},
{
closed = 1;
nodes = (
(2706,261,o),
(2767,314,o),
(2866,314,cs),
(3180,314,ls),
(3238,314,o),
(3332,285,o),
(3332,162,cs),
(3332,26,o),
(3234,-11,o),
(3152,-11,cs),
(3131,-11,l),
(3114,67,l),
(3185,79,o),
(3229,106,o),
(3229,157,cs),
(3229,199,o),
(3194,219,o),
(3153,219,cs),
(2859,221,ls),
(2820,221,o),
(2796,196,o),
(2796,162,cs),
(2796,111,o),
(2841,83,o),
(2902,83,cs),
(2957,83,o),
(3011,119,o),
(3011,196,cs),
(3011,262,l),
(3014,274,l),
(3014,386,l),
(2912,386,l),
(2912,282,l),
(2823,282,l),
(2823,481,l),
(3214,481,l),
(3212,386,l),
(3121,386,l),
(3121,189,ls),
(3121,82,o),
(3061,-13,o),
(2908,-13,cs),
(2768,-13,o),
(2706,82,o),
(2706,160,cs)
);
},
{
closed = 1;
nodes = (
(3089,550,o),
(3121,583,o),
(3121,624,cs),
(3121,666,o),
(3089,700,o),
(3047,700,cs),
(3005,700,o),
(2973,666,o),
(2973,624,cs),
(2973,583,o),
(3005,550,o),
(3047,550,cs)
);
}
);
width = 3362;
}
);
},
